{
  "accessors": [
    {
      "bufferView": 2,
      "componentType": 5126,
      "count": 65532,
      "max": [
        22.409347534179688,
        -2.592456579208374,
        10.262334823608398
      ],
      "min": [
        0.079295381903648376,
        -18.673921585083008,
        -14.375606536865234
      ],
      "type": "VEC3"
    },
    {
      "bufferView": 2,
      "byteOffset": 786384,
      "componentType": 5126,
      "count": 65532,
      "max": [
        0.99998509883880615,
        0.99999994039535522,
        0.99982237815856934
      ],
      "min": [
        -0.99999934434890747,
        -0.99983483552932739,
        -0.99998736381530762
      ],
      "type": "VEC3"
    },
    {
      "bufferView": 3,
      "componentType": 5126,
      "count": 65532,
      "max": [
        0.99999994039535522,
        0.99666845798492432,
        0.99999916553497314,
        -1
      ],
      "min": [
        -0.99999988079071045,
        -0.99999260902404785,
        -0.99997866153717041,
        -1
      ],
      "type": "VEC4"
    },
    {
      "bufferView": 1,
      "componentType": 5126,
      "count": 65532,
      "max": [
        0.99959301948547363,
        0.8103029727935791
      ],
      "min": [
        0.00024399999529123306,
        0.00046999999904073775
      ],
      "type": "VEC2"
    },
    {
      "bufferView": 0,
      "componentType": 5125,
      "count": 267846,
      "max": [
        65531
      ],
      "min": [
        0
      ],
      "type": "SCALAR"
    },
    {
      "bufferView": 2,
      "byteOffset": 1572768,
      "componentType": 5126,
      "count": 65532,
      "max": [
        22.464076995849609,
        -2.592456579208374,
        4.3479304313659668
      ],
      "min": [
        -0.3046136200428009,
        -24.916540145874023,
        -15.22269344329834
      ],
      "type": "VEC3"
    },
    {
      "bufferView": 2,
      "byteOffset": 2359152,
      "componentType": 5126,
      "count": 65532,
      "max": [
        0.99996393918991089,
        0.99998486042022705,
        0.99997574090957642
      ],
      "min": [
        -0.99999445676803589,
        -0.99994152784347534,
        -0.99999147653579712
      ],
      "type": "VEC3"
    },
    {
      "bufferView": 3,
      "byteOffset": 1048512,
      "componentType": 5126,
      "count": 65532,
      "max": [
        1,
        0.99998366832733154,
        0.99999821186065674,
        -1
      ],
      "min": [
        -0.99999988079071045,
        -0.99585384130477905,
        -0.99999904632568359,
        -1
      ],
      "type": "VEC4"
    },
    {
      "bufferView": 1,
      "byteOffset": 524256,
      "componentType": 5126,
      "count": 65532,
      "max": [
        0.99946999549865723,
        0.8103029727935791
      ],
      "min": [
        0.00024399999529123306,
        0.0019069999689236283
      ],
      "type": "VEC2"
    },
    {
      "bufferView": 0,
      "byteOffset": 1071384,
      "componentType": 5125,
      "count": 232080,
      "max": [
        65531
      ],
      "min": [
        0
      ],
      "type": "SCALAR"
    },
    {
      "bufferView": 2,
      "byteOffset": 3145536,
      "componentType": 5126,
      "count": 65532,
      "max": [
        23.008060455322266,
        -5.5605220794677734,
        16.985054016113281
      ],
      "min": [
        -0.75191330909729004,
        -24.916540145874023,
        -13.861983299255371
      ],
      "type": "VEC3"
    },
    {
      "bufferView": 2,
      "byteOffset": 3931920,
      "componentType": 5126,
      "count": 65532,
      "max": [
        0.99997621774673462,
        0.99991673231124878,
        0.99987643957138062
      ],
      "min": [
        -0.9999699592590332,
        -0.99988365173339844,
        -0.99999266862869263
      ],
      "type": "VEC3"
    },
    {
      "bufferView": 3,
      "byteOffset": 2097024,
      "componentType": 5126,
      "count": 65532,
      "max": [
        0.9999997615814209,
        0.9995415210723877,
        0.99999934434890747,
        -1
      ],
      "min": [
        -0.9999997615814209,
        -0.99893122911453247,
        -0.99999535083770752,
        -1
      ],
      "type": "VEC4"
    },
    {
      "bufferView": 1,
      "byteOffset": 1048512,
      "componentType": 5126,
      "count": 65532,
      "max": [
        0.99962502717971802,
        0.8103029727935791
      ],
      "min": [
        0.00024399999529123306,
        0.00080400001024827361
      ],
      "type": "VEC2"
    },
    {
      "bufferView": 0,
      "byteOffset": 1999704,
      "componentType": 5125,
      "count": 246657,
      "max": [
        65531
      ],
      "min": [
        0
      ],
      "type": "SCALAR"
    },
    {
      "bufferView": 2,
      "byteOffset": 4718304,
      "componentType": 5126,
      "count": 65532,
      "max": [
        22.248653411865234,
        -4.9667139053344727,
        17.035200119018555
      ],
      "min": [
        -0.61242663860321045,
        -25.550065994262695,
        -2.7382986545562744
      ],
      "type": "VEC3"
    },
    {
      "bufferView": 2,
      "byteOffset": 5504688,
      "componentType": 5126,
      "count": 65532,
      "max": [
        0.99995595216751099,
        0.99982589483261108,
        0.99999231100082397
      ],
      "min": [
        -0.99997609853744507,
        -0.99997228384017944,
        -0.99983161687850952
      ],
      "type": "VEC3"
    },
    {
      "bufferView": 3,
      "byteOffset": 3145536,
      "componentType": 5126,
      "count": 65532,
      "max": [
        0.99999970197677612,
        0.99667197465896606,
        0.99999111890792847,
        -1
      ],
      "min": [
        -0.99999970197677612,
        -0.99991285800933838,
        -0.9999995231628418,
        -1
      ],
      "type": "VEC4"
    },
    {
      "bufferView": 1,
      "byteOffset": 1572768,
      "componentType": 5126,
      "count": 65532,
      "max": [
        0.9996039867401123,
        0.8103029727935791
      ],
      "min": [
        0.00024399999529123306,
        0.013717000372707844
      ],
      "type": "VEC2"
    },
    {
      "bufferView": 0,
      "byteOffset": 2986332,
      "componentType": 5125,
      "count": 245751,
      "max": [
        65531
      ],
      "min": [
        0
      ],
      "type": "SCALAR"
    },
    {
      "bufferView": 2,
      "byteOffset": 6291072,
      "componentType": 5126,
      "count": 56941,
      "max": [
        21.75462532043457,
        -4.1239380836486816,
        12.04667854309082
      ],
      "min": [
        0.60436517000198364,
        -25.448310852050781,
        -11.965254783630371
      ],
      "type": "VEC3"
    },
    {
      "bufferView": 2,
      "byteOffset": 6974364,
      "componentType": 5126,
      "count": 56941,
      "max": [
        0.99989163875579834,
        0.99994069337844849,
        0.99999153614044189
      ],
      "min": [
        -0.99994075298309326,
        -0.99995821714401245,
        -0.99991589784622192
      ],
      "type": "VEC3"
    },
    {
      "bufferView": 3,
      "byteOffset": 4194048,
      "componentType": 5126,
      "count": 56941,
      "max": [
        0.99999988079071045,
        0.99814558029174805,
        0.99999839067459106,
        -1
      ],
      "min": [
        -0.99999916553497314,
        -0.99962931871414185,
        -0.99999463558197021,
        -1
      ],
      "type": "VEC4"
    },
    {
      "bufferView": 1,
      "byteOffset": 2097024,
      "componentType": 5126,
      "count": 56941,
      "max": [
        0.99961000680923462,
        0.8103029727935791
      ],
      "min": [
        0.00024399999529123306,
        0.0079140001907944679
      ],
      "type": "VEC2"
    },
    {
      "bufferView": 0,
      "byteOffset": 3969336,
      "componentType": 5125,
      "count": 207666,
      "max": [
        56940
      ],
      "min": [
        0
      ],
      "type": "SCALAR"
    }
  ],
  "asset": {
    "extras": {
      "author": "Laithai (https://sketchfab.com/serm3d)",
      "license": "CC-BY-4.0 (http://creativecommons.org/licenses/by/4.0/)",
      "source": "https://sketchfab.com/models/62cc563e52514fa9b2e3dfdfc09e5377",
      "title": "Durian The King of Fruits"
    },
    "generator": "Sketchfab-3.32.2",
    "version": "2.0"
  },
  "bufferViews": [
    {
      "buffer": 0,
      "byteLength": 4800000,
      "byteOffset": 0,
      "name": "floatBufferViews",
      "target": 34963
    },
    {
      "buffer": 0,
      "byteLength": 2552552,
      "byteOffset": 4800000,
      "byteStride": 8,
      "name": "floatBufferViews",
      "target": 34962
    },
    {
      "buffer": 0,
      "byteLength": 7657656,
      "byteOffset": 7352552,
      "byteStride": 12,
      "name": "floatBufferViews",
      "target": 34962
    },
    {
      "buffer": 0,
      "byteLength": 5105104,
      "byteOffset": 15010208,
      "byteStride": 16,
      "name": "floatBufferViews",
      "target": 34962
    }
  ],
  "buffers": [
    {
      "byteLength": 20115312,
      "uri": "scene.bin"
    }
  ],
  "extensionsUsed": [
    "KHR_materials_unlit"
  ],
  "images": [
    {
      "uri": "model_Material_u1_v1_baseColor.jpeg"
    }
  ],
  "materials": [
    {
      "doubleSided": true,
      "emissiveFactor": [
        0,
        0,
        0
      ],
      "extensions": {
        "KHR_materials_unlit": {}
      },
      "name": "model_Material_u1_v1",
      "pbrMetallicRoughness": {
        "baseColorFactor": [
          1,
          1,
          1,
          1
        ],
        "baseColorTexture": {
          "index": 0,
          "texCoord": 0
        },
        "metallicFactor": 0,
        "roughnessFactor": 1
      }
    }
  ],
  "meshes": [
    {
      "primitives": [
        {
          "attributes": {
            "NORMAL": 1,
            "POSITION": 0,
            "TANGENT": 2,
            "TEXCOORD_0": 3
          },
          "indices": 4,
          "material": 0,
          "mode": 4
        }
      ]
    },
    {
      "primitives": [
        {
          "attributes": {
            "NORMAL": 6,
            "POSITION": 5,
            "TANGENT": 7,
            "TEXCOORD_0": 8
          },
          "indices": 9,
          "material": 0,
          "mode": 4
        }
      ]
    },
    {
      "primitives": [
        {
          "attributes": {
            "NORMAL": 11,
            "POSITION": 10,
            "TANGENT": 12,
            "TEXCOORD_0": 13
          },
          "indices": 14,
          "material": 0,
          "mode": 4
        }
      ]
    },
    {
      "primitives": [
        {
          "attributes": {
            "NORMAL": 16,
            "POSITION": 15,
            "TANGENT": 17,
            "TEXCOORD_0": 18
          },
          "indices": 19,
          "material": 0,
          "mode": 4
        }
      ]
    },
    {
      "primitives": [
        {
          "attributes": {
            "NORMAL": 21,
            "POSITION": 20,
            "TANGENT": 22,
            "TEXCOORD_0": 23
          },
          "indices": 24,
          "material": 0,
          "mode": 4
        }
      ]
    }
  ],
  "nodes": [
    {
      "children": [
        1
      ],
      "name": "RootNode (gltf orientation matrix)",
      "rotation": [
        -0.70710678118654746,
        -0,
        -0,
        0.70710678118654757
      ]
    },
    {
      "children": [
        2
      ],
      "name": "RootNode (model correction matrix)"
    },
    {
      "children": [
        3,
        4,
        5,
        6,
        7
      ],
      "name": "model.obj.cleaner.materialmerger.gles"
    },
    {
      "mesh": 0,
      "name": ""
    },
    {
      "mesh": 1,
      "name": ""
    },
    {
      "mesh": 2,
      "name": ""
    },
    {
      "mesh": 3,
      "name": ""
    },
    {
      "mesh": 4,
      "name": ""
    }
  ],
  "samplers": [
    {
      "magFilter": 9729,
      "minFilter": 9987,
      "wrapS": 10497,
      "wrapT": 10497
    }
  ],
  "scene": 0,
  "scenes": [
    {
      "name": "OSG_Scene",
      "nodes": [
        0
      ]
    }
  ],
  "textures": [
    {
      "sampler": 0,
      "source": 0
    }
  ]
}

