{
  "accessors": [
    {
      "bufferView": 2,
      "componentType": 5126,
      "count": 49265,
      "max": [
        7.062374591827393,
        0.6336103677749634,
        6.135273456573486
      ],
      "min": [
        -6.103041172027588,
        -24.81924819946289,
        -6.25910758972168
      ],
      "type": "VEC3"
    },
    {
      "bufferView": 2,
      "byteOffset": 591180,
      "componentType": 5126,
      "count": 49265,
      "max": [
        0.9999821186065674,
        0.9998644590377808,
        0.9999685883522034
      ],
      "min": [
        -0.9999731779098511,
        -0.9999984502792358,
        -0.9999515414237976
      ],
      "type": "VEC3"
    },
    {
      "bufferView": 1,
      "componentType": 5126,
      "count": 49265,
      "max": [
        0.9995070099830627,
        0.9916989803314209
      ],
      "min": [
        0.0004879999905824661,
        0.0004990000161342323
      ],
      "type": "VEC2"
    },
    {
      "bufferView": 0,
      "componentType": 5125,
      "count": 143652,
      "type": "SCALAR"
    }
  ],
  "asset": {
    "extras": {
      "author": "masanaga (https://sketchfab.com/tasklong)",
      "license": "CC-BY-NC-4.0 (http://creativecommons.org/licenses/by-nc/4.0/)",
      "source": "https://sketchfab.com/3d-models/grape-king-delaware-50549a7af24f4ed68fe75a23bbf0c98b",
      "title": "Grape \"King Delaware\" / 葡萄（キングデラウェア）"
    },
    "generator": "Sketchfab-11.54.0",
    "version": "2.0"
  },
  "bufferViews": [
    {
      "buffer": 0,
      "byteLength": 574608,
      "name": "floatBufferViews",
      "target": 34963
    },
    {
      "buffer": 0,
      "byteLength": 394120,
      "byteOffset": 574608,
      "byteStride": 8,
      "name": "floatBufferViews",
      "target": 34962
    },
    {
      "buffer": 0,
      "byteLength": 1182360,
      "byteOffset": 968728,
      "byteStride": 12,
      "name": "floatBufferViews",
      "target": 34962
    }
  ],
  "buffers": [
    {
      "byteLength": 2151088,
      "uri": "scene.bin"
    }
  ],
  "extensionsUsed": [
    "KHR_materials_clearcoat"
  ],
  "images": [
    {
      "uri": "grape02_Model_10_u0_v0_baseColor.jpeg"
    }
  ],
  "materials": [
    {
      "doubleSided": true,
      "extensions": {
        "KHR_materials_clearcoat": {
          "clearcoatFactor": 0.3543600921754252,
          "clearcoatRoughnessFactor": 0.3239592263587667
        }
      },
      "name": "grape02_Model_10_u0_v0",
      "pbrMetallicRoughness": {
        "baseColorTexture": {
          "index": 0
        },
        "metallicFactor": 0.6705290966686731,
        "roughnessFactor": 0.652288577178678
      }
    }
  ],
  "meshes": [
    {
      "name": "Object_0",
      "primitives": [
        {
          "attributes": {
            "NORMAL": 1,
            "POSITION": 0,
            "TEXCOORD_0": 2
          },
          "indices": 3,
          "material": 0,
          "mode": 4
        }
      ]
    }
  ],
  "nodes": [
    {
      "children": [
        1
      ],
      "matrix": [
        -3.3306690738754696e-16,
        3.885780586188048e-16,
        1.0,
        0.0,
        0.04959883168339729,
        -0.998769223690033,
        5.55384799552076e-16,
        0.0,
        0.998769223690033,
        0.04959883168339729,
        6.65243042171409e-17,
        0.0,
        1.1413012742996216,
        -12.136741638183596,
        11.613105773925778,
        1.0
      ],
      "name": "Sketchfab_model"
    },
    {
      "children": [
        2
      ],
      "name": "grape02_Model_10.obj.cleaner.materialmerger.gles"
    },
    {
      "mesh": 0,
      "name": "Object_2"
    }
  ],
  "samplers": [
    {
      "magFilter": 9729,
      "minFilter": 9987,
      "wrapS": 10497,
      "wrapT": 10497
    }
  ],
  "scene": 0,
  "scenes": [
    {
      "name": "Sketchfab_Scene",
      "nodes": [
        0
      ]
    }
  ],
  "textures": [
    {
      "sampler": 0,
      "source": 0
    }
  ]
}
