{
  "accessors": [
    {
      "bufferView": 2,
      "componentType": 5126,
      "count": 23313,
      "max": [
        6.134499549865723,
        23.218721389770508,
        18.197683334350586
      ],
      "min": [
        -6.1344990730285645,
        -0.05887651443481445,
        -18.197683334350586
      ],
      "type": "VEC3"
    },
    {
      "bufferView": 2,
      "byteOffset": 279756,
      "componentType": 5126,
      "count": 23313,
      "max": [
        0.9999385476112366,
        0.999967634677887,
        0.9999068379402161
      ],
      "min": [
        -0.9999745488166809,
        -0.9999660849571228,
        -0.9996789693832397
      ],
      "type": "VEC3"
    },
    {
      "bufferView": 1,
      "componentType": 5126,
      "count": 23313,
      "max": [
        0.9917258620262146,
        0.9940625429153442
      ],
      "min": [
        0.004994755610823631,
        0.006206810474395752
      ],
      "type": "VEC2"
    },
    {
      "bufferView": 1,
      "byteOffset": 186504,
      "componentType": 5126,
      "count": 23313,
      "max": [
        0.9917258620262146,
        0.9940625429153442
      ],
      "min": [
        0.004994755610823631,
        0.006206810474395752
      ],
      "type": "VEC2"
    },
    {
      "bufferView": 1,
      "byteOffset": 373008,
      "componentType": 5126,
      "count": 23313,
      "max": [
        0.9917258620262146,
        0.9940625429153442
      ],
      "min": [
        0.004994755610823631,
        0.006206810474395752
      ],
      "type": "VEC2"
    },
    {
      "bufferView": 0,
      "componentType": 5125,
      "count": 128130,
      "type": "SCALAR"
    }
  ],
  "asset": {
    "extras": {
      "author": "daniel.jibi (https://sketchfab.com/daniel.jibi)",
      "license": "CC-BY-4.0 (http://creativecommons.org/licenses/by/4.0/)",
      "source": "https://sketchfab.com/3d-models/lion-f94d39b60c5846148b63b523c8e85ed4",
      "title": "Lion"
    },
    "generator": "Sketchfab-11.86.0",
    "version": "2.0"
  },
  "bufferViews": [
    {
      "buffer": 0,
      "byteLength": 512520,
      "name": "floatBufferViews",
      "target": 34963
    },
    {
      "buffer": 0,
      "byteLength": 559512,
      "byteOffset": 512520,
      "byteStride": 8,
      "name": "floatBufferViews",
      "target": 34962
    },
    {
      "buffer": 0,
      "byteLength": 559512,
      "byteOffset": 1072032,
      "byteStride": 12,
      "name": "floatBufferViews",
      "target": 34962
    }
  ],
  "buffers": [
    {
      "byteLength": 1631544,
      "uri": "scene.bin"
    }
  ],
  "extensionsRequired": [
    "KHR_materials_pbrSpecularGlossiness"
  ],
  "extensionsUsed": [
    "KHR_materials_pbrSpecularGlossiness"
  ],
  "images": [
    {
      "uri": "material_diffuse.png"
    },
    {
      "uri": "material_specularGlossiness.png"
    }
  ],
  "materials": [
    {
      "doubleSided": true,
      "extensions": {
        "KHR_materials_pbrSpecularGlossiness": {
          "diffuseFactor": [
            1.0,
            1.0,
            1.0,
            1.0
          ],
          "diffuseTexture": {
            "index": 0
          },
          "glossinessFactor": 1.0,
          "specularFactor": [
            1.0,
            1.0,
            1.0
          ],
          "specularGlossinessTexture": {
            "index": 1
          }
        }
      },
      "name": "material"
    }
  ],
  "meshes": [
    {
      "name": "Object_0",
      "primitives": [
        {
          "attributes": {
            "NORMAL": 1,
            "POSITION": 0,
            "TEXCOORD_0": 2,
            "TEXCOORD_1": 3,
            "TEXCOORD_2": 4
          },
          "indices": 5,
          "material": 0,
          "mode": 4
        }
      ]
    }
  ],
  "nodes": [
    {
      "children": [
        1
      ],
      "matrix": [
        1.0,
        0.0,
        0.0,
        0.0,
        0.0,
        2.220446049250313e-16,
        -1.0,
        0.0,
        0.0,
        1.0,
        2.220446049250313e-16,
        0.0,
        0.0,
        0.0,
        0.0,
        1.0
      ],
      "name": "Sketchfab_model"
    },
    {
      "children": [
        2
      ],
      "name": "root"
    },
    {
      "children": [
        3
      ],
      "matrix": [
        1.0,
        0.0,
        0.0,
        0.0,
        0.0,
        2.220446049250313e-16,
        1.0,
        0.0,
        0.0,
        -1.0,
        2.220446049250313e-16,
        0.0,
        0.0,
        0.0,
        0.0,
        1.0
      ],
      "name": "GLTF_SceneRootNode"
    },
    {
      "children": [
        4
      ],
      "name": "root_0"
    },
    {
      "children": [
        5
      ],
      "matrix": [
        0.013921110019377169,
        -0.0,
        -0.017029396977446553,
        0.0,
        0.0,
        0.02199540100991726,
        0.0,
        0.0,
        0.017029396977446553,
        0.0,
        0.013921110019377169,
        0.0,
        -1.253772907716666e-08,
        -0.2547048032283783,
        0.4002663195133209,
        1.0
      ],
      "name": "node_id30_1"
    },
    {
      "mesh": 0,
      "name": "Object_5"
    }
  ],
  "samplers": [
    {
      "magFilter": 9729,
      "minFilter": 9987,
      "wrapS": 10497,
      "wrapT": 10497
    }
  ],
  "scene": 0,
  "scenes": [
    {
      "name": "Sketchfab_Scene",
      "nodes": [
        0
      ]
    }
  ],
  "textures": [
    {
      "sampler": 0,
      "source": 0
    },
    {
      "sampler": 0,
      "source": 1
    }
  ]
}
