{
  "accessors": [
    {
      "bufferView": 2,
      "componentType": 5126,
      "count": 65532,
      "max": [
        6.124323844909668,
        0.16389505565166473,
        4.9022908210754395
      ],
      "min": [
        -6.241787433624268,
        -35.05992889404297,
        -2.6483888626098633
      ],
      "type": "VEC3"
    },
    {
      "bufferView": 2,
      "byteOffset": 786384,
      "componentType": 5126,
      "count": 65532,
      "max": [
        0.9999996423721313,
        1.0,
        0.999993622303009
      ],
      "min": [
        -0.9999992847442627,
        -1.0,
        -0.9999896883964539
      ],
      "type": "VEC3"
    },
    {
      "bufferView": 3,
      "componentType": 5126,
      "count": 65532,
      "max": [
        0.9720646739006042,
        0.999996542930603,
        0.9171579480171204,
        -1.0
      ],
      "min": [
        -0.9677225351333618,
        -0.9999974370002747,
        -0.9011713266372681,
        -1.0
      ],
      "type": "VEC4"
    },
    {
      "bufferView": 1,
      "componentType": 5126,
      "count": 65532,
      "max": [
        0.999701976776123,
        0.9935089945793152
      ],
      "min": [
        0.00024399999529123306,
        0.00029399999766610563
      ],
      "type": "VEC2"
    },
    {
      "bufferView": 0,
      "componentType": 5125,
      "count": 332292,
      "type": "SCALAR"
    },
    {
      "bufferView": 2,
      "byteOffset": 1572768,
      "componentType": 5126,
      "count": 65532,
      "max": [
        6.399410724639893,
        0.16389505565166473,
        5.199150085449219
      ],
      "min": [
        -7.280972480773926,
        -36.71810531616211,
        -2.6483888626098633
      ],
      "type": "VEC3"
    },
    {
      "bufferView": 2,
      "byteOffset": 2359152,
      "componentType": 5126,
      "count": 65532,
      "max": [
        0.9999889135360718,
        1.0,
        0.9999919533729553
      ],
      "min": [
        -0.99998539686203,
        -1.0,
        -0.9999975562095642
      ],
      "type": "VEC3"
    },
    {
      "bufferView": 3,
      "byteOffset": 1048512,
      "componentType": 5126,
      "count": 65532,
      "max": [
        0.9724528193473816,
        0.9999990463256836,
        0.9725672602653503,
        -1.0
      ],
      "min": [
        -0.9569839835166931,
        -0.999999463558197,
        -0.9326558113098145,
        -1.0
      ],
      "type": "VEC4"
    },
    {
      "bufferView": 1,
      "byteOffset": 524256,
      "componentType": 5126,
      "count": 65532,
      "max": [
        0.9993969798088074,
        0.9851070046424866
      ],
      "min": [
        0.00024399999529123306,
        0.0002500000118743628
      ],
      "type": "VEC2"
    },
    {
      "bufferView": 0,
      "byteOffset": 1329168,
      "componentType": 5125,
      "count": 321153,
      "type": "SCALAR"
    },
    {
      "bufferView": 2,
      "byteOffset": 3145536,
      "componentType": 5126,
      "count": 51368,
      "max": [
        6.394941806793213,
        0.16317586600780487,
        5.199150085449219
      ],
      "min": [
        -7.184436798095703,
        -35.93009567260742,
        -2.6483888626098633
      ],
      "type": "VEC3"
    },
    {
      "bufferView": 2,
      "byteOffset": 3761952,
      "componentType": 5126,
      "count": 51368,
      "max": [
        0.9999514818191528,
        0.9999996423721313,
        0.9999918937683105
      ],
      "min": [
        -0.9999973177909851,
        -0.9999999403953552,
        -0.9999990463256836
      ],
      "type": "VEC3"
    },
    {
      "bufferView": 3,
      "byteOffset": 2097024,
      "componentType": 5126,
      "count": 51368,
      "max": [
        0.9795528650283813,
        0.9999995827674866,
        0.9169229865074158,
        -1.0
      ],
      "min": [
        -0.9740925431251526,
        -0.9999980926513672,
        -0.922292172908783,
        -1.0
      ],
      "type": "VEC4"
    },
    {
      "bufferView": 1,
      "byteOffset": 1048512,
      "componentType": 5126,
      "count": 51368,
      "max": [
        0.9995710253715515,
        0.9997559785842896
      ],
      "min": [
        0.00024399999529123306,
        0.00024399999529123306
      ],
      "type": "VEC2"
    },
    {
      "bufferView": 0,
      "byteOffset": 2613780,
      "componentType": 5125,
      "count": 230337,
      "type": "SCALAR"
    }
  ],
  "asset": {
    "extras": {
      "author": "Malopolska`s Virtual Museums (https://sketchfab.com/WirtualneMuzeaMalopolski)",
      "license": "CC0-1.0 (http://creativecommons.org/publicdomain/zero/1.0/)",
      "source": "https://sketchfab.com/3d-models/military-uniform-of-general-jozef-giza-b563b09b3f884321a62d5154faec8ad4",
      "title": "Military uniform of General Józef Giza"
    },
    "generator": "Sketchfab-10.58.0",
    "version": "2.0"
  },
  "bufferViews": [
    {
      "buffer": 0,
      "byteLength": 3535128,
      "name": "floatBufferViews",
      "target": 34963
    },
    {
      "buffer": 0,
      "byteLength": 1459456,
      "byteOffset": 3535128,
      "byteStride": 8,
      "name": "floatBufferViews",
      "target": 34962
    },
    {
      "buffer": 0,
      "byteLength": 4378368,
      "byteOffset": 4994584,
      "byteStride": 12,
      "name": "floatBufferViews",
      "target": 34962
    },
    {
      "buffer": 0,
      "byteLength": 2918912,
      "byteOffset": 9372952,
      "byteStride": 16,
      "name": "floatBufferViews",
      "target": 34962
    }
  ],
  "buffers": [
    {
      "byteLength": 12291864,
      "uri": "scene.bin"
    }
  ],
  "images": [
    {
      "uri": "MNS_H_4592_Mundur_FIN_Material_u1_v1_baseColor.png"
    },
    {
      "uri": "MNS_H_4592_Mundur_FIN_Material_u1_v1_metallicRoughness.png"
    },
    {
      "uri": "MNS_H_4592_Mundur_FIN_Material_u1_v1_normal.png"
    }
  ],
  "materials": [
    {
      "doubleSided": true,
      "name": "MNS_H_4592_Mundur_FIN_Material_u1_v1",
      "normalTexture": {
        "index": 2
      },
      "occlusionTexture": {
        "index": 1
      },
      "pbrMetallicRoughness": {
        "baseColorTexture": {
          "index": 0
        },
        "metallicRoughnessTexture": {
          "index": 1
        }
      }
    }
  ],
  "meshes": [
    {
      "name": "Object_0",
      "primitives": [
        {
          "attributes": {
            "NORMAL": 1,
            "POSITION": 0,
            "TANGENT": 2,
            "TEXCOORD_0": 3
          },
          "indices": 4,
          "material": 0,
          "mode": 4
        }
      ]
    },
    {
      "name": "Object_1",
      "primitives": [
        {
          "attributes": {
            "NORMAL": 6,
            "POSITION": 5,
            "TANGENT": 7,
            "TEXCOORD_0": 8
          },
          "indices": 9,
          "material": 0,
          "mode": 4
        }
      ]
    },
    {
      "name": "Object_2",
      "primitives": [
        {
          "attributes": {
            "NORMAL": 11,
            "POSITION": 10,
            "TANGENT": 12,
            "TEXCOORD_0": 13
          },
          "indices": 14,
          "material": 0,
          "mode": 4
        }
      ]
    }
  ],
  "nodes": [
    {
      "children": [
        1
      ],
      "matrix": [
        1.0,
        0.0,
        0.0,
        0.0,
        0.0,
        -1.0,
        -4.440892098500626e-16,
        0.0,
        0.0,
        4.440892098500626e-16,
        -1.0,
        0.0,
        0.0,
        -17.001785278320316,
        19.552537918090817,
        1.0
      ],
      "name": "Sketchfab_model"
    },
    {
      "children": [
        2,
        3,
        4
      ],
      "name": "MNS_H_4592_Mundur_FIN.obj.cleaner.materialmerger.gles"
    },
    {
      "mesh": 0,
      "name": "Object_2"
    },
    {
      "mesh": 1,
      "name": "Object_3"
    },
    {
      "mesh": 2,
      "name": "Object_4"
    }
  ],
  "samplers": [
    {
      "magFilter": 9729,
      "minFilter": 9987,
      "wrapS": 10497,
      "wrapT": 10497
    }
  ],
  "scene": 0,
  "scenes": [
    {
      "name": "Sketchfab_Scene",
      "nodes": [
        0
      ]
    }
  ],
  "textures": [
    {
      "sampler": 0,
      "source": 0
    },
    {
      "sampler": 0,
      "source": 1
    },
    {
      "sampler": 0,
      "source": 2
    }
  ]
}
