{
  "accessors": [
    {
      "bufferView": 2,
      "componentType": 5126,
      "count": 65532,
      "max": [
        0.75348299741744995,
        10.07834529876709,
        0.86631202697753906
      ],
      "min": [
        -1.523906946182251,
        8.8451557159423828,
        -0.63519197702407837
      ],
      "type": "VEC3"
    },
    {
      "bufferView": 2,
      "byteOffset": 786384,
      "componentType": 5126,
      "count": 65532,
      "max": [
        0.99883300065994263,
        0.99999767541885376,
        0.97901290655136108
      ],
      "min": [
        -0.99804127216339111,
        -0.99565482139587402,
        -0.99999874830245972
      ],
      "type": "VEC3"
    },
    {
      "bufferView": 1,
      "componentType": 5126,
      "count": 65532,
      "max": [
        0.89547401666641235,
        0.98008900880813599
      ],
      "min": [
        4.8999998398358002e-05,
        1.8999999156221747e-05
      ],
      "type": "VEC2"
    },
    {
      "bufferView": 0,
      "componentType": 5125,
      "count": 363993,
      "max": [
        65531
      ],
      "min": [
        0
      ],
      "type": "SCALAR"
    },
    {
      "bufferView": 2,
      "byteOffset": 1572768,
      "componentType": 5126,
      "count": 65533,
      "max": [
        0.75705301761627197,
        10.07769775390625,
        0.88245999813079834
      ],
      "min": [
        -1.5488409996032715,
        8.8328647613525391,
        -0.55023300647735596
      ],
      "type": "VEC3"
    },
    {
      "bufferView": 2,
      "byteOffset": 2359164,
      "componentType": 5126,
      "count": 65533,
      "max": [
        0.99994963407516479,
        0.99999767541885376,
        0.99997305870056152
      ],
      "min": [
        -0.9999995231628418,
        -0.99999231100082397,
        -0.98737317323684692
      ],
      "type": "VEC3"
    },
    {
      "bufferView": 1,
      "byteOffset": 524256,
      "componentType": 5126,
      "count": 65533,
      "max": [
        0.9132540225982666,
        0.99994397163391113
      ],
      "min": [
        0.0010049999691545963,
        1.8999999156221747e-05
      ],
      "type": "VEC2"
    },
    {
      "bufferView": 0,
      "byteOffset": 1455972,
      "componentType": 5125,
      "count": 342744,
      "max": [
        65532
      ],
      "min": [
        0
      ],
      "type": "SCALAR"
    },
    {
      "bufferView": 2,
      "byteOffset": 3145560,
      "componentType": 5126,
      "count": 11001,
      "max": [
        -0.35161200165748596,
        10.073855400085449,
        0.87669700384140015
      ],
      "min": [
        -1.5488409996032715,
        8.8346471786499023,
        -0.50027000904083252
      ],
      "type": "VEC3"
    },
    {
      "bufferView": 2,
      "byteOffset": 3277572,
      "componentType": 5126,
      "count": 11001,
      "max": [
        0.9552728533744812,
        0.99972796440124512,
        0.99993640184402466
      ],
      "min": [
        -0.9999995231628418,
        -0.99998784065246582,
        -0.96073710918426514
      ],
      "type": "VEC3"
    },
    {
      "bufferView": 1,
      "byteOffset": 1048520,
      "componentType": 5126,
      "count": 11001,
      "max": [
        0.85908997058868408,
        0.9767490029335022
      ],
      "min": [
        6.8000001192558557e-05,
        0.0016210000030696392
      ],
      "type": "VEC2"
    },
    {
      "bufferView": 0,
      "byteOffset": 2826948,
      "componentType": 5125,
      "count": 28131,
      "max": [
        11000
      ],
      "min": [
        0
      ],
      "type": "SCALAR"
    }
  ],
  "asset": {
    "extras": {
      "author": "mjkzz (https://sketchfab.com/mjkzz)",
      "license": "CC-BY-4.0 (http://creativecommons.org/licenses/by/4.0/)",
      "source": "https://sketchfab.com/3d-models/small-mango-1-74a47f3f0dda4a32a529934b20a02554",
      "title": "Small Mango #1"
    },
    "generator": "Sketchfab-8.83.0",
    "version": "2.0"
  },
  "bufferViews": [
    {
      "buffer": 0,
      "byteLength": 2939472,
      "byteOffset": 0,
      "name": "floatBufferViews",
      "target": 34963
    },
    {
      "buffer": 0,
      "byteLength": 1136528,
      "byteOffset": 2939472,
      "byteStride": 8,
      "name": "floatBufferViews",
      "target": 34962
    },
    {
      "buffer": 0,
      "byteLength": 3409584,
      "byteOffset": 4076000,
      "byteStride": 12,
      "name": "floatBufferViews",
      "target": 34962
    }
  ],
  "buffers": [
    {
      "byteLength": 7485584,
      "uri": "scene.bin"
    }
  ],
  "images": [
    {
      "uri": "material_baseColor.jpeg"
    }
  ],
  "materials": [
    {
      "doubleSided": true,
      "emissiveFactor": [
        0,
        0,
        0
      ],
      "name": "material",
      "pbrMetallicRoughness": {
        "baseColorFactor": [
          1,
          1,
          1,
          1
        ],
        "baseColorTexture": {
          "index": 0,
          "texCoord": 0
        },
        "metallicFactor": 0,
        "roughnessFactor": 1
      }
    }
  ],
  "meshes": [
    {
      "primitives": [
        {
          "attributes": {
            "NORMAL": 1,
            "POSITION": 0,
            "TEXCOORD_0": 2
          },
          "indices": 3,
          "material": 0,
          "mode": 4
        }
      ]
    },
    {
      "primitives": [
        {
          "attributes": {
            "NORMAL": 5,
            "POSITION": 4,
            "TEXCOORD_0": 6
          },
          "indices": 7,
          "material": 0,
          "mode": 4
        }
      ]
    },
    {
      "primitives": [
        {
          "attributes": {
            "NORMAL": 9,
            "POSITION": 8,
            "TEXCOORD_0": 10
          },
          "indices": 11,
          "material": 0,
          "mode": 4
        }
      ]
    }
  ],
  "nodes": [
    {
      "children": [
        1
      ],
      "name": "RootNode (gltf orientation matrix)",
      "rotation": [
        -0.70710678118654746,
        -0,
        -0,
        0.70710678118654757
      ]
    },
    {
      "children": [
        2
      ],
      "matrix": [
        1,
        0,
        0,
        0,
        0,
        0.95229846239089966,
        0.3051682710647583,
        0,
        0,
        -0.3051682710647583,
        0.95229846239089966,
        0,
        0,
        0.48877617716789246,
        -2.8796517848968506,
        1
      ],
      "name": "RootNode (model correction matrix)"
    },
    {
      "children": [
        3,
        4,
        5
      ],
      "name": "mg.obj.cleaner.materialmerger.gles"
    },
    {
      "mesh": 0,
      "name": ""
    },
    {
      "mesh": 1,
      "name": ""
    },
    {
      "mesh": 2,
      "name": ""
    }
  ],
  "samplers": [
    {
      "magFilter": 9729,
      "minFilter": 9987,
      "wrapS": 10497,
      "wrapT": 10497
    }
  ],
  "scene": 0,
  "scenes": [
    {
      "name": "OSG_Scene",
      "nodes": [
        0
      ]
    }
  ],
  "textures": [
    {
      "sampler": 0,
      "source": 0
    }
  ]
}

