{
  "accessors": [
    {
      "bufferView": 2,
      "componentType": 5126,
      "count": 65532,
      "max": [
        0.19113700091838837,
        8.4846401214599609,
        0.25152799487113953
      ],
      "min": [
        -0.69323402643203735,
        7.2821760177612305,
        -0.89294397830963135
      ],
      "type": "VEC3"
    },
    {
      "bufferView": 2,
      "byteOffset": 786384,
      "componentType": 5126,
      "count": 65532,
      "max": [
        0.99688714742660522,
        0.99978536367416382,
        0.99999815225601196
      ],
      "min": [
        -0.99999034404754639,
        -0.99999535083770752,
        -0.99993306398391724
      ],
      "type": "VEC3"
    },
    {
      "bufferView": 1,
      "componentType": 5126,
      "count": 65532,
      "max": [
        0.80994397401809692,
        0.8311840295791626
      ],
      "min": [
        0.00012099999730708078,
        0.099361002445220947
      ],
      "type": "VEC2"
    },
    {
      "bufferView": 0,
      "componentType": 5125,
      "count": 361443,
      "max": [
        65531
      ],
      "min": [
        0
      ],
      "type": "SCALAR"
    },
    {
      "bufferView": 2,
      "byteOffset": 1572768,
      "componentType": 5126,
      "count": 65532,
      "max": [
        0.31348401308059692,
        8.5289926528930664,
        0.2435619980096817
      ],
      "min": [
        -0.71086597442626953,
        7.3397607803344727,
        -0.92103397846221924
      ],
      "type": "VEC3"
    },
    {
      "bufferView": 2,
      "byteOffset": 2359152,
      "componentType": 5126,
      "count": 65532,
      "max": [
        0.99997448921203613,
        0.99999672174453735,
        0.99998527765274048
      ],
      "min": [
        -0.99999535083770752,
        -0.99998974800109863,
        -0.99998605251312256
      ],
      "type": "VEC3"
    },
    {
      "bufferView": 1,
      "byteOffset": 524256,
      "componentType": 5126,
      "count": 65532,
      "max": [
        0.99993002414703369,
        0.96894800662994385
      ],
      "min": [
        0.017365999519824982,
        0.00018400000408291817
      ],
      "type": "VEC2"
    },
    {
      "bufferView": 0,
      "byteOffset": 1445772,
      "componentType": 5125,
      "count": 357843,
      "max": [
        65531
      ],
      "min": [
        0
      ],
      "type": "SCALAR"
    },
    {
      "bufferView": 2,
      "byteOffset": 3145536,
      "componentType": 5126,
      "count": 65532,
      "max": [
        0.3238309919834137,
        8.522125244140625,
        0.24738700687885284
      ],
      "min": [
        -0.73960500955581665,
        7.2804851531982422,
        -0.9233660101890564
      ],
      "type": "VEC3"
    },
    {
      "bufferView": 2,
      "byteOffset": 3931920,
      "componentType": 5126,
      "count": 65532,
      "max": [
        0.99999964237213135,
        0.99975305795669556,
        0.99997895956039429
      ],
      "min": [
        -0.99999576807022095,
        -0.9999767541885376,
        -0.99999761581420898
      ],
      "type": "VEC3"
    },
    {
      "bufferView": 1,
      "byteOffset": 1048512,
      "componentType": 5126,
      "count": 65532,
      "max": [
        0.99992197751998901,
        0.96843498945236206
      ],
      "min": [
        0.0008449999731965363,
        0.00024500000290572643
      ],
      "type": "VEC2"
    },
    {
      "bufferView": 0,
      "byteOffset": 2877144,
      "componentType": 5125,
      "count": 324036,
      "max": [
        65531
      ],
      "min": [
        0
      ],
      "type": "SCALAR"
    },
    {
      "bufferView": 2,
      "byteOffset": 4718304,
      "componentType": 5126,
      "count": 59649,
      "max": [
        0.31769698858261108,
        8.4551153182983398,
        0.25152799487113953
      ],
      "min": [
        -0.74024099111557007,
        7.2811160087585449,
        -0.92258697748184204
      ],
      "type": "VEC3"
    },
    {
      "bufferView": 2,
      "byteOffset": 5434092,
      "componentType": 5126,
      "count": 59649,
      "max": [
        0.99990653991699219,
        0.99945676326751709,
        0.99999815225601196
      ],
      "min": [
        -0.99999576807022095,
        -0.99999004602432251,
        -0.99987518787384033
      ],
      "type": "VEC3"
    },
    {
      "bufferView": 1,
      "byteOffset": 1572768,
      "componentType": 5126,
      "count": 59649,
      "max": [
        0.99600601196289062,
        0.96834701299667358
      ],
      "min": [
        1.8999999156221747e-05,
        0.00010399999882793054
      ],
      "type": "VEC2"
    },
    {
      "bufferView": 0,
      "byteOffset": 4173288,
      "componentType": 5125,
      "count": 281010,
      "max": [
        59648
      ],
      "min": [
        0
      ],
      "type": "SCALAR"
    }
  ],
  "asset": {
    "extras": {
      "author": "mjkzz (https://sketchfab.com/mjkzz)",
      "license": "CC-BY-4.0 (http://creativecommons.org/licenses/by/4.0/)",
      "source": "https://sketchfab.com/3d-models/chilean-kiwi-16d913f9f7164119bb0da629d6e9cbd3",
      "title": "Chilean Kiwi"
    },
    "generator": "Sketchfab-8.83.0",
    "version": "2.0"
  },
  "bufferViews": [
    {
      "buffer": 0,
      "byteLength": 5297328,
      "byteOffset": 0,
      "name": "floatBufferViews",
      "target": 34963
    },
    {
      "buffer": 0,
      "byteLength": 2049960,
      "byteOffset": 5297328,
      "byteStride": 8,
      "name": "floatBufferViews",
      "target": 34962
    },
    {
      "buffer": 0,
      "byteLength": 6149880,
      "byteOffset": 7347288,
      "byteStride": 12,
      "name": "floatBufferViews",
      "target": 34962
    }
  ],
  "buffers": [
    {
      "byteLength": 13497168,
      "uri": "scene.bin"
    }
  ],
  "images": [
    {
      "uri": "material_baseColor.jpeg"
    }
  ],
  "materials": [
    {
      "doubleSided": true,
      "emissiveFactor": [
        0,
        0,
        0
      ],
      "name": "material",
      "pbrMetallicRoughness": {
        "baseColorFactor": [
          1,
          1,
          1,
          1
        ],
        "baseColorTexture": {
          "index": 0,
          "texCoord": 0
        },
        "metallicFactor": 0,
        "roughnessFactor": 1
      }
    }
  ],
  "meshes": [
    {
      "primitives": [
        {
          "attributes": {
            "NORMAL": 1,
            "POSITION": 0,
            "TEXCOORD_0": 2
          },
          "indices": 3,
          "material": 0,
          "mode": 4
        }
      ]
    },
    {
      "primitives": [
        {
          "attributes": {
            "NORMAL": 5,
            "POSITION": 4,
            "TEXCOORD_0": 6
          },
          "indices": 7,
          "material": 0,
          "mode": 4
        }
      ]
    },
    {
      "primitives": [
        {
          "attributes": {
            "NORMAL": 9,
            "POSITION": 8,
            "TEXCOORD_0": 10
          },
          "indices": 11,
          "material": 0,
          "mode": 4
        }
      ]
    },
    {
      "primitives": [
        {
          "attributes": {
            "NORMAL": 13,
            "POSITION": 12,
            "TEXCOORD_0": 14
          },
          "indices": 15,
          "material": 0,
          "mode": 4
        }
      ]
    }
  ],
  "nodes": [
    {
      "children": [
        1
      ],
      "name": "RootNode (gltf orientation matrix)",
      "rotation": [
        -0.70710678118654746,
        -0,
        -0,
        0.70710678118654757
      ]
    },
    {
      "children": [
        2
      ],
      "matrix": [
        0.0068688532337546349,
        0.17731167376041412,
        -0.98413079977035522,
        0,
        0.015497518703341484,
        0.98401689529418945,
        0.17739932239055634,
        0,
        0.99985629320144653,
        -0.016470115631818771,
        0.0040111769922077656,
        0,
        0.0054916893132030964,
        0.10563001036643982,
        -1.970819354057312,
        1
      ],
      "name": "RootNode (model correction matrix)"
    },
    {
      "children": [
        3,
        4,
        5,
        6
      ],
      "name": "ckw.obj.cleaner.materialmerger.gles"
    },
    {
      "mesh": 0,
      "name": ""
    },
    {
      "mesh": 1,
      "name": ""
    },
    {
      "mesh": 2,
      "name": ""
    },
    {
      "mesh": 3,
      "name": ""
    }
  ],
  "samplers": [
    {
      "magFilter": 9729,
      "minFilter": 9987,
      "wrapS": 10497,
      "wrapT": 10497
    }
  ],
  "scene": 0,
  "scenes": [
    {
      "name": "OSG_Scene",
      "nodes": [
        0
      ]
    }
  ],
  "textures": [
    {
      "sampler": 0,
      "source": 0
    }
  ]
}

