{
  "accessors": [
    {
      "bufferView": 2,
      "componentType": 5126,
      "count": 14602,
      "max": [
        11.194214820861816,
        6.9435081481933594,
        6.8435602188110352
      ],
      "min": [
        -11.194214820861816,
        -6.9435076713562012,
        -6.8435602188110352
      ],
      "type": "VEC3"
    },
    {
      "bufferView": 2,
      "byteOffset": 175224,
      "componentType": 5126,
      "count": 14602,
      "max": [
        0.99537765979766846,
        0.99993002414703369,
        0.99998706579208374
      ],
      "min": [
        -0.99989354610443115,
        -0.99995064735412598,
        -0.99994689226150513
      ],
      "type": "VEC3"
    },
    {
      "bufferView": 3,
      "componentType": 5126,
      "count": 14602,
      "max": [
        0.98980820178985596,
        0.99893635511398315,
        0.99997496604919434,
        1
      ],
      "min": [
        -0.99646985530853271,
        -0.99342453479766846,
        -0.99961256980895996,
        1
      ],
      "type": "VEC4"
    },
    {
      "bufferView": 1,
      "componentType": 5126,
      "count": 14602,
      "max": [
        0.99799996614456177,
        0.99060779809951782
      ],
      "min": [
        0.0020000000949949026,
        0.0020000000949949026
      ],
      "type": "VEC2"
    },
    {
      "bufferView": 0,
      "componentType": 5125,
      "count": 84798,
      "max": [
        14601
      ],
      "min": [
        0
      ],
      "type": "SCALAR"
    }
  ],
  "asset": {
    "extras": {
      "author": "3dhdscan (https://sketchfab.com/3dhdscan)",
      "license": "CC-BY-4.0 (http://creativecommons.org/licenses/by/4.0/)",
      "source": "https://sketchfab.com/models/196caf120c9a49159ad1b877c8d595cd",
      "title": "Rugby Ball"
    },
    "generator": "Sketchfab-3.17.1",
    "version": "2.0"
  },
  "bufferViews": [
    {
      "buffer": 0,
      "byteLength": 339192,
      "byteOffset": 0,
      "name": "floatBufferViews",
      "target": 34963
    },
    {
      "buffer": 0,
      "byteLength": 116816,
      "byteOffset": 339192,
      "byteStride": 8,
      "name": "floatBufferViews",
      "target": 34962
    },
    {
      "buffer": 0,
      "byteLength": 350448,
      "byteOffset": 456008,
      "byteStride": 12,
      "name": "floatBufferViews",
      "target": 34962
    },
    {
      "buffer": 0,
      "byteLength": 233632,
      "byteOffset": 806456,
      "byteStride": 16,
      "name": "floatBufferViews",
      "target": 34962
    }
  ],
  "buffers": [
    {
      "byteLength": 1040088,
      "uri": "scene.bin"
    }
  ],
  "images": [
    {
      "uri": "ragby_ball_normal.jpeg"
    },
    {
      "uri": "ragby_ball_baseColor.jpeg"
    }
  ],
  "materials": [
    {
      "doubleSided": true,
      "emissiveFactor": [
        0,
        0,
        0
      ],
      "name": "ragby_ball",
      "normalTexture": {
        "index": 0,
        "scale": 0.63586128050000001,
        "texCoord": 0
      },
      "pbrMetallicRoughness": {
        "baseColorFactor": [
          1,
          1,
          1,
          1
        ],
        "baseColorTexture": {
          "index": 1,
          "texCoord": 0
        },
        "metallicFactor": 0,
        "roughnessFactor": 0.34927591460000001
      }
    }
  ],
  "meshes": [
    {
      "name": "ragby_ball_ragby_ball_0",
      "primitives": [
        {
          "attributes": {
            "NORMAL": 1,
            "POSITION": 0,
            "TANGENT": 2,
            "TEXCOORD_0": 3
          },
          "indices": 4,
          "material": 0,
          "mode": 4
        }
      ]
    }
  ],
  "nodes": [
    {
      "children": [
        1
      ],
      "name": "RootNode (gltf orientation matrix)",
      "rotation": [
        -0.70710678118654746,
        -0,
        -0,
        0.70710678118654757
      ]
    },
    {
      "children": [
        2
      ],
      "name": "RootNode (model correction matrix)"
    },
    {
      "children": [
        3
      ],
      "matrix": [
        1,
        0,
        0,
        0,
        0,
        0,
        1,
        0,
        0,
        -1,
        0,
        0,
        0,
        0,
        0,
        1
      ],
      "name": "ragby_ball.FBX"
    },
    {
      "children": [
        4
      ],
      "name": "RootNode"
    },
    {
      "children": [
        5
      ],
      "matrix": [
        1,
        0,
        0,
        0,
        0,
        2.2204460492503131e-16,
        -1,
        0,
        0,
        1,
        2.2204460492503131e-16,
        0,
        2.1095418930053711,
        0.61492729187011719,
        7.0031595230102539,
        1
      ],
      "name": "ragby_ball"
    },
    {
      "mesh": 0,
      "name": "ragby_ball_ragby_ball_0"
    }
  ],
  "samplers": [
    {
      "magFilter": 9729,
      "minFilter": 9987,
      "wrapS": 10497,
      "wrapT": 10497
    }
  ],
  "scene": 0,
  "scenes": [
    {
      "name": "OSG_Scene",
      "nodes": [
        0
      ]
    }
  ],
  "textures": [
    {
      "sampler": 0,
      "source": 0
    },
    {
      "sampler": 0,
      "source": 1
    }
  ]
}

