{
  "accessors": [
    {
      "bufferView": 2,
      "componentType": 5126,
      "count": 2426,
      "max": [
        3.131666898727417,
        3.0595359802246094,
        6.528717041015625
      ],
      "min": [
        -3.2918169498443604,
        -3.378511905670166,
        0.10875999927520752
      ],
      "type": "VEC3"
    },
    {
      "bufferView": 2,
      "byteOffset": 29112,
      "componentType": 5126,
      "count": 2426,
      "max": [
        0.99874919652938843,
        0.99996805191040039,
        0.99952346086502075
      ],
      "min": [
        -0.99868154525756836,
        -0.99969989061355591,
        -0.99983686208724976
      ],
      "type": "VEC3"
    },
    {
      "bufferView": 3,
      "componentType": 5126,
      "count": 2426,
      "max": [
        0.74990493059158325,
        0.99929511547088623,
        0.86022353172302246,
        1
      ],
      "min": [
        -0.96579992771148682,
        -0.99997329711914062,
        -0.98701441287994385,
        1
      ],
      "type": "VEC4"
    },
    {
      "bufferView": 1,
      "componentType": 5126,
      "count": 2426,
      "max": [
        0.99997401237487793,
        0.97362399101257324
      ],
      "min": [
        0.00012500000593718141,
        8.0999998317565769e-05
      ],
      "type": "VEC2"
    },
    {
      "bufferView": 0,
      "componentType": 5125,
      "count": 13650,
      "max": [
        2425
      ],
      "min": [
        0
      ],
      "type": "SCALAR"
    }
  ],
  "asset": {
    "extras": {
      "author": "thesidekick (https://sketchfab.com/thesidekick)",
      "license": "CC-BY-4.0 (http://creativecommons.org/licenses/by/4.0/)",
      "source": "https://sketchfab.com/3d-models/basketball-8d17cb0964334a6cbe4b0e293c238956",
      "title": "Basketball"
    },
    "generator": "Sketchfab-7.68.0",
    "version": "2.0"
  },
  "bufferViews": [
    {
      "buffer": 0,
      "byteLength": 54600,
      "byteOffset": 0,
      "name": "floatBufferViews",
      "target": 34963
    },
    {
      "buffer": 0,
      "byteLength": 19408,
      "byteOffset": 54600,
      "byteStride": 8,
      "name": "floatBufferViews",
      "target": 34962
    },
    {
      "buffer": 0,
      "byteLength": 58224,
      "byteOffset": 74008,
      "byteStride": 12,
      "name": "floatBufferViews",
      "target": 34962
    },
    {
      "buffer": 0,
      "byteLength": 38816,
      "byteOffset": 132232,
      "byteStride": 16,
      "name": "floatBufferViews",
      "target": 34962
    }
  ],
  "buffers": [
    {
      "byteLength": 171048,
      "uri": "scene.bin"
    }
  ],
  "images": [
    {
      "uri": "Basketball_size6_baseColor.jpeg"
    },
    {
      "uri": "Basketball_size6_metallicRoughness.png"
    },
    {
      "uri": "Basketball_size6_normal.png"
    }
  ],
  "materials": [
    {
      "doubleSided": true,
      "emissiveFactor": [
        0,
        0,
        0
      ],
      "name": "Basketball_size6",
      "normalTexture": {
        "index": 2,
        "scale": 0.75928030303030303,
        "texCoord": 0
      },
      "occlusionTexture": {
        "index": 1,
        "strength": 1,
        "texCoord": 0
      },
      "pbrMetallicRoughness": {
        "baseColorFactor": [
          0.82594696969696968,
          0.82594696969696968,
          0.82594696969696968,
          1
        ],
        "baseColorTexture": {
          "index": 0,
          "texCoord": 0
        },
        "metallicFactor": 0,
        "metallicRoughnessTexture": {
          "index": 1,
          "texCoord": 0
        },
        "roughnessFactor": 0.40776515151515152
      }
    }
  ],
  "meshes": [
    {
      "primitives": [
        {
          "attributes": {
            "NORMAL": 1,
            "POSITION": 0,
            "TANGENT": 2,
            "TEXCOORD_0": 3
          },
          "indices": 4,
          "material": 0,
          "mode": 4
        }
      ]
    }
  ],
  "nodes": [
    {
      "children": [
        1
      ],
      "name": "RootNode (gltf orientation matrix)",
      "rotation": [
        -0.70710678118654746,
        -0,
        -0,
        0.70710678118654757
      ]
    },
    {
      "children": [
        2
      ],
      "name": "RootNode (model correction matrix)"
    },
    {
      "children": [
        3
      ],
      "name": "Basketball_size6_SF.obj.cleaner.materialmerger.gles"
    },
    {
      "mesh": 0,
      "name": ""
    }
  ],
  "samplers": [
    {
      "magFilter": 9729,
      "minFilter": 9987,
      "wrapS": 10497,
      "wrapT": 10497
    }
  ],
  "scene": 0,
  "scenes": [
    {
      "name": "OSG_Scene",
      "nodes": [
        0
      ]
    }
  ],
  "textures": [
    {
      "sampler": 0,
      "source": 0
    },
    {
      "sampler": 0,
      "source": 1
    },
    {
      "sampler": 0,
      "source": 2
    }
  ]
}

