{
  "accessors": [
    {
      "bufferView": 2,
      "componentType": 5126,
      "count": 4769,
      "max": [
        2.8594939708709717,
        2.245968818664551,
        1.8112249374389648
      ],
      "min": [
        -2.6898481845855713,
        -0.679938793182373,
        -4.354625225067139
      ],
      "type": "VEC3"
    },
    {
      "bufferView": 2,
      "byteOffset": 57228,
      "componentType": 5126,
      "count": 4769,
      "max": [
        0.9982957243919373,
        0.9999249577522278,
        1.0
      ],
      "min": [
        -0.99931401014328,
        -0.9996519088745117,
        -1.0
      ],
      "type": "VEC3"
    },
    {
      "bufferView": 1,
      "componentType": 5126,
      "count": 4769,
      "max": [
        0.9980469346046448,
        0.998046875
      ],
      "min": [
        0.0019531226716935635,
        0.00700753927230835
      ],
      "type": "VEC2"
    },
    {
      "bufferView": 1,
      "byteOffset": 38152,
      "componentType": 5126,
      "count": 4769,
      "max": [
        0.9980469346046448,
        0.998046875
      ],
      "min": [
        0.0019531226716935635,
        0.00700753927230835
      ],
      "type": "VEC2"
    },
    {
      "bufferView": 1,
      "byteOffset": 76304,
      "componentType": 5126,
      "count": 4769,
      "max": [
        0.9980469346046448,
        0.998046875
      ],
      "min": [
        0.0019531226716935635,
        0.00700753927230835
      ],
      "type": "VEC2"
    },
    {
      "bufferView": 1,
      "byteOffset": 114456,
      "componentType": 5126,
      "count": 4769,
      "max": [
        0.9980469346046448,
        0.998046875
      ],
      "min": [
        0.0019531226716935635,
        0.00700753927230835
      ],
      "type": "VEC2"
    },
    {
      "bufferView": 1,
      "byteOffset": 152608,
      "componentType": 5126,
      "count": 4769,
      "max": [
        0.9980469346046448,
        0.998046875
      ],
      "min": [
        0.0019531226716935635,
        0.00700753927230835
      ],
      "type": "VEC2"
    },
    {
      "bufferView": 0,
      "componentType": 5125,
      "count": 24336,
      "type": "SCALAR"
    }
  ],
  "asset": {
    "extras": {
      "author": "N1K (https://sketchfab.com/n1k77)",
      "license": "CC-BY-NC-4.0 (http://creativecommons.org/licenses/by-nc/4.0/)",
      "source": "https://sketchfab.com/3d-models/artifex-ant-2b3d4906f9ec4b7c9945e4f710262253",
      "title": "Artifex Ant"
    },
    "generator": "Sketchfab-11.40.0",
    "version": "2.0"
  },
  "bufferViews": [
    {
      "buffer": 0,
      "byteLength": 97344,
      "name": "floatBufferViews",
      "target": 34963
    },
    {
      "buffer": 0,
      "byteLength": 190760,
      "byteOffset": 97344,
      "byteStride": 8,
      "name": "floatBufferViews",
      "target": 34962
    },
    {
      "buffer": 0,
      "byteLength": 114456,
      "byteOffset": 288104,
      "byteStride": 12,
      "name": "floatBufferViews",
      "target": 34962
    }
  ],
  "buffers": [
    {
      "byteLength": 402560,
      "uri": "scene.bin"
    }
  ],
  "images": [
    {
      "uri": "formica_operaia_unita_posa1_1_baseColor.png"
    },
    {
      "uri": "formica_operaia_unita_posa1_1_metallicRoughness.png"
    }
  ],
  "materials": [
    {
      "name": "formica_operaia_unita_posa1_1",
      "occlusionTexture": {
        "index": 1
      },
      "pbrMetallicRoughness": {
        "baseColorTexture": {
          "index": 0
        },
        "metallicRoughnessTexture": {
          "index": 1
        },
        "roughnessFactor": 0.43340234329873717
      }
    }
  ],
  "meshes": [
    {
      "name": "Object_0",
      "primitives": [
        {
          "attributes": {
            "NORMAL": 1,
            "POSITION": 0,
            "TEXCOORD_0": 2,
            "TEXCOORD_1": 3,
            "TEXCOORD_2": 4,
            "TEXCOORD_3": 5,
            "TEXCOORD_4": 6
          },
          "indices": 7,
          "material": 0,
          "mode": 4
        }
      ]
    }
  ],
  "nodes": [
    {
      "children": [
        1
      ],
      "matrix": [
        0.5004242658615112,
        0.0,
        0.0,
        0.0,
        0.0,
        1.111165084081181e-16,
        -0.5004242658615112,
        0.0,
        0.0,
        0.5004242658615112,
        1.111165084081181e-16,
        0.0,
        0.0,
        0.0,
        0.0,
        1.0
      ],
      "name": "Sketchfab_model"
    },
    {
      "children": [
        2
      ],
      "name": "root"
    },
    {
      "children": [
        3
      ],
      "matrix": [
        1.0,
        0.0,
        0.0,
        0.0,
        0.0,
        2.220446049250313e-16,
        1.0,
        0.0,
        0.0,
        -1.0,
        2.220446049250313e-16,
        0.0,
        0.0,
        0.0,
        0.0,
        1.0
      ],
      "name": "GLTF_SceneRootNode"
    },
    {
      "children": [
        4
      ],
      "name": "RootNode_0"
    },
    {
      "children": [
        5
      ],
      "name": "formica_operaia_unita_posa1_1_1"
    },
    {
      "children": [
        6
      ],
      "name": "formica_operaia_unita_posa1_1_2"
    },
    {
      "mesh": 0,
      "name": "Object_6"
    }
  ],
  "samplers": [
    {
      "magFilter": 9729,
      "minFilter": 9987,
      "wrapS": 10497,
      "wrapT": 10497
    }
  ],
  "scene": 0,
  "scenes": [
    {
      "name": "Sketchfab_Scene",
      "nodes": [
        0
      ]
    }
  ],
  "textures": [
    {
      "sampler": 0,
      "source": 0
    },
    {
      "sampler": 0,
      "source": 1
    }
  ]
}
