{
  "accessors": [
    {
      "bufferView": 2,
      "componentType": 5126,
      "count": 1497,
      "max": [
        2.2083945274353027,
        0.07670944184064865,
        6.683516025543213
      ],
      "min": [
        -2.204577922821045,
        -7.307369232177734,
        -7.066588878631592
      ],
      "type": "VEC3"
    },
    {
      "bufferView": 2,
      "byteOffset": 17964,
      "componentType": 5126,
      "count": 1497,
      "max": [
        0.9999386668205261,
        0.9999909400939941,
        0.9994987845420837
      ],
      "min": [
        -0.9999386668205261,
        -0.9999496936798096,
        -0.9973538517951965
      ],
      "type": "VEC3"
    },
    {
      "bufferView": 1,
      "componentType": 5126,
      "count": 1497,
      "max": [
        0.9976925253868103,
        0.9982062578201294
      ],
      "min": [
        -0.0023995423689484596,
        0.0019048452377319336
      ],
      "type": "VEC2"
    },
    {
      "bufferView": 0,
      "componentType": 5125,
      "count": 7362,
      "type": "SCALAR"
    }
  ],
  "asset": {
    "extras": {
      "author": "fabiotambone (https://sketchfab.com/fabiotambone)",
      "license": "CC-BY-4.0 (http://creativecommons.org/licenses/by/4.0/)",
      "source": "https://sketchfab.com/3d-models/lowpoly-pig-26ae14bd0d2b4650b4bf878ca85ad06a",
      "title": "lowpoly pig"
    },
    "generator": "Sketchfab-10.87.0",
    "version": "2.0"
  },
  "bufferViews": [
    {
      "buffer": 0,
      "byteLength": 29448,
      "name": "floatBufferViews",
      "target": 34963
    },
    {
      "buffer": 0,
      "byteLength": 11976,
      "byteOffset": 29448,
      "byteStride": 8,
      "name": "floatBufferViews",
      "target": 34962
    },
    {
      "buffer": 0,
      "byteLength": 35928,
      "byteOffset": 41424,
      "byteStride": 12,
      "name": "floatBufferViews",
      "target": 34962
    }
  ],
  "buffers": [
    {
      "byteLength": 77352,
      "uri": "scene.bin"
    }
  ],
  "images": [
    {
      "uri": "Material_25_baseColor.jpeg"
    }
  ],
  "materials": [
    {
      "doubleSided": true,
      "name": "Material_25",
      "pbrMetallicRoughness": {
        "baseColorTexture": {
          "index": 0
        },
        "metallicFactor": 0.0,
        "roughnessFactor": 0.6
      }
    }
  ],
  "meshes": [
    {
      "name": "Mesh_1244_Material #25_0",
      "primitives": [
        {
          "attributes": {
            "NORMAL": 1,
            "POSITION": 0,
            "TEXCOORD_0": 2
          },
          "indices": 3,
          "material": 0,
          "mode": 4
        }
      ]
    }
  ],
  "nodes": [
    {
      "children": [
        1
      ],
      "matrix": [
        1.0,
        0.0,
        0.0,
        0.0,
        0.0,
        2.220446049250313e-16,
        -1.0,
        0.0,
        0.0,
        1.0,
        2.220446049250313e-16,
        0.0,
        0.0,
        0.0,
        0.0,
        1.0
      ],
      "name": "Sketchfab_model"
    },
    {
      "children": [
        2
      ],
      "matrix": [
        1.0,
        0.0,
        0.0,
        0.0,
        0.0,
        0.0,
        1.0,
        0.0,
        0.0,
        -1.0,
        0.0,
        0.0,
        0.0,
        0.0,
        0.0,
        1.0
      ],
      "name": "20dd3c1334bd45aeab55600785b2c35b.fbx"
    },
    {
      "children": [
        3
      ],
      "name": "RootNode"
    },
    {
      "children": [
        4
      ],
      "matrix": [
        7.819469800373982,
        5.095371065964554e-16,
        -8.321369988210037,
        0.0,
        1.355723277733422e-06,
        -11.418813705444188,
        1.2739533558899653e-06,
        0.0,
        -8.321369988209925,
        -1.8603609216417005e-06,
        -7.819469800373881,
        0.0,
        -13.794931411743164,
        0.003945350646972656,
        -12.820262908935547,
        1.0
      ],
      "name": "Mesh_1244"
    },
    {
      "mesh": 0,
      "name": "Mesh_1244_Material #25_0"
    }
  ],
  "samplers": [
    {
      "magFilter": 9729,
      "minFilter": 9987,
      "wrapS": 10497,
      "wrapT": 10497
    }
  ],
  "scene": 0,
  "scenes": [
    {
      "name": "Sketchfab_Scene",
      "nodes": [
        0
      ]
    }
  ],
  "textures": [
    {
      "sampler": 0,
      "source": 0
    }
  ]
}
