{
  "accessors": [
    {
      "bufferView": 2,
      "componentType": 5126,
      "count": 38755,
      "max": [
        5.1111545562744141,
        5.1115055084228516,
        5.1210861206054688
      ],
      "min": [
        -5.1111550331115723,
        -5.1115055084228516,
        -5.1210861206054688
      ],
      "type": "VEC3"
    },
    {
      "bufferView": 2,
      "byteOffset": 465060,
      "componentType": 5126,
      "count": 38755,
      "max": [
        0.99997925758361816,
        1,
        1
      ],
      "min": [
        -0.99997925758361816,
        -1,
        -1
      ],
      "type": "VEC3"
    },
    {
      "bufferView": 1,
      "componentType": 5126,
      "count": 38755,
      "max": [
        1.4316004514694214,
        1.4906449317932129
      ],
      "min": [
        -0.59711372852325439,
        -0.46580332517623901
      ],
      "type": "VEC2"
    },
    {
      "bufferView": 0,
      "componentType": 5125,
      "count": 230400,
      "max": [
        38754
      ],
      "min": [
        0
      ],
      "type": "SCALAR"
    }
  ],
  "asset": {
    "extras": {
      "author": "Emilio.Gallo (https://sketchfab.com/Emilio.Gallo)",
      "license": "CC-BY-4.0 (http://creativecommons.org/licenses/by/4.0/)",
      "source": "https://sketchfab.com/3d-models/golf-ball-c6da7a1179d84ddb83e089ce33c24c78",
      "title": "Golf Ball"
    },
    "generator": "Sketchfab-9.49.0",
    "version": "2.0"
  },
  "bufferViews": [
    {
      "buffer": 0,
      "byteLength": 921600,
      "byteOffset": 0,
      "name": "floatBufferViews",
      "target": 34963
    },
    {
      "buffer": 0,
      "byteLength": 310040,
      "byteOffset": 921600,
      "byteStride": 8,
      "name": "floatBufferViews",
      "target": 34962
    },
    {
      "buffer": 0,
      "byteLength": 930120,
      "byteOffset": 1231640,
      "byteStride": 12,
      "name": "floatBufferViews",
      "target": 34962
    }
  ],
  "buffers": [
    {
      "byteLength": 2161760,
      "uri": "scene.bin"
    }
  ],
  "materials": [
    {
      "doubleSided": true,
      "emissiveFactor": [
        0,
        0,
        0
      ],
      "name": "01_-_Default",
      "pbrMetallicRoughness": {
        "baseColorFactor": [
          1,
          1,
          1,
          1
        ],
        "metallicFactor": 0.28747818737877656,
        "roughnessFactor": 0.29907003751466843
      }
    }
  ],
  "meshes": [
    {
      "name": "GeoSphere02_01 - Default_0",
      "primitives": [
        {
          "attributes": {
            "NORMAL": 1,
            "POSITION": 0,
            "TEXCOORD_0": 2
          },
          "indices": 3,
          "material": 0,
          "mode": 4
        }
      ]
    }
  ],
  "nodes": [
    {
      "children": [
        1
      ],
      "name": "RootNode (gltf orientation matrix)",
      "rotation": [
        -0.70710678118654746,
        -0,
        -0,
        0.70710678118654757
      ]
    },
    {
      "children": [
        2
      ],
      "name": "RootNode (model correction matrix)"
    },
    {
      "children": [
        3
      ],
      "matrix": [
        1,
        0,
        0,
        0,
        0,
        0,
        1,
        0,
        0,
        -1,
        0,
        0,
        0,
        0,
        0,
        1
      ],
      "name": "e41c83f10f3745b98e4eb562fe593911.fbx"
    },
    {
      "children": [
        4
      ],
      "name": "RootNode"
    },
    {
      "children": [
        5
      ],
      "matrix": [
        1,
        0,
        0,
        0,
        0,
        2.2204460492503131e-16,
        -1,
        0,
        0,
        1,
        2.2204460492503131e-16,
        0,
        0,
        0,
        0,
        1
      ],
      "name": "GeoSphere02"
    },
    {
      "mesh": 0,
      "name": "GeoSphere02_01 - Default_0"
    }
  ],
  "scene": 0,
  "scenes": [
    {
      "name": "OSG_Scene",
      "nodes": [
        0
      ]
    }
  ]
}

