{
  "accessors": [
    {
      "bufferView": 2,
      "componentType": 5126,
      "count": 19974,
      "max": [
        0.5910379886627197,
        0.30640700459480286,
        1.6177020072937012
      ],
      "min": [
        -0.6027349829673767,
        -0.19631800055503845,
        0.5518580079078674
      ],
      "type": "VEC3"
    },
    {
      "bufferView": 2,
      "byteOffset": 239688,
      "componentType": 5126,
      "count": 19974,
      "max": [
        0.9999797344207764,
        0.9999942183494568,
        0.9852938652038574
      ],
      "min": [
        -0.9999914765357971,
        -0.9997746348381042,
        -0.9998684525489807
      ],
      "type": "VEC3"
    },
    {
      "bufferView": 3,
      "componentType": 5126,
      "count": 19974,
      "max": [
        0.9958550333976746,
        0.9998683929443359,
        0.9984463453292847,
        1.0
      ],
      "min": [
        -0.9999954700469971,
        -0.9999949932098389,
        -0.9942464232444763,
        -1.0
      ],
      "type": "VEC4"
    },
    {
      "bufferView": 1,
      "componentType": 5126,
      "count": 19974,
      "max": [
        0.9874609708786011,
        0.9874439835548401
      ],
      "min": [
        0.012679999694228172,
        0.015282999724149704
      ],
      "type": "VEC2"
    },
    {
      "bufferView": 0,
      "componentType": 5125,
      "count": 108384,
      "type": "SCALAR"
    }
  ],
  "asset": {
    "extras": {
      "author": "Digital Dressmaker (https://sketchfab.com/digitaldressmaker)",
      "license": "CC-BY-4.0 (http://creativecommons.org/licenses/by/4.0/)",
      "source": "https://sketchfab.com/3d-models/1830s-frock-coat-unbuttoned-bb2d52721c394447904afa41f70ca56c",
      "title": "1830s Frock Coat (Unbuttoned)"
    },
    "generator": "Sketchfab-10.72.0",
    "version": "2.0"
  },
  "bufferViews": [
    {
      "buffer": 0,
      "byteLength": 433536,
      "name": "floatBufferViews",
      "target": 34963
    },
    {
      "buffer": 0,
      "byteLength": 159792,
      "byteOffset": 433536,
      "byteStride": 8,
      "name": "floatBufferViews",
      "target": 34962
    },
    {
      "buffer": 0,
      "byteLength": 479376,
      "byteOffset": 593328,
      "byteStride": 12,
      "name": "floatBufferViews",
      "target": 34962
    },
    {
      "buffer": 0,
      "byteLength": 319584,
      "byteOffset": 1072704,
      "byteStride": 16,
      "name": "floatBufferViews",
      "target": 34962
    }
  ],
  "buffers": [
    {
      "byteLength": 1392288,
      "uri": "scene.bin"
    }
  ],
  "images": [
    {
      "uri": "frockcoat_baseColor.jpeg"
    },
    {
      "uri": "frockcoat_metallicRoughness.png"
    },
    {
      "uri": "frockcoat_normal.png"
    }
  ],
  "materials": [
    {
      "doubleSided": true,
      "name": "frockcoat",
      "normalTexture": {
        "index": 2
      },
      "occlusionTexture": {
        "index": 1
      },
      "pbrMetallicRoughness": {
        "baseColorTexture": {
          "index": 0
        },
        "metallicRoughnessTexture": {
          "index": 1
        }
      }
    }
  ],
  "meshes": [
    {
      "name": "defaultMaterial",
      "primitives": [
        {
          "attributes": {
            "NORMAL": 1,
            "POSITION": 0,
            "TANGENT": 2,
            "TEXCOORD_0": 3
          },
          "indices": 4,
          "material": 0,
          "mode": 4
        }
      ]
    }
  ],
  "nodes": [
    {
      "children": [
        1
      ],
      "matrix": [
        1.0,
        0.0,
        0.0,
        0.0,
        0.0,
        2.220446049250313e-16,
        -1.0,
        0.0,
        0.0,
        1.0,
        2.220446049250313e-16,
        0.0,
        0.0,
        0.0,
        0.0,
        1.0
      ],
      "name": "Sketchfab_model"
    },
    {
      "children": [
        2
      ],
      "matrix": [
        1.0,
        0.0,
        0.0,
        0.0,
        0.0,
        -4.371139006309477e-08,
        0.999999999999999,
        0.0,
        0.0,
        -0.999999999999999,
        -4.371139006309477e-08,
        0.0,
        0.0,
        0.0,
        0.0,
        1.0
      ],
      "name": "Collada visual scene group"
    },
    {
      "children": [
        3
      ],
      "matrix": [
        100.0,
        0.0,
        0.0,
        0.0,
        0.0,
        -1.6e-05,
        -100.0,
        0.0,
        0.0,
        100.0,
        -1.6e-05,
        0.0,
        0.0,
        0.0,
        0.0,
        1.0
      ],
      "name": "frockcoat_low.009"
    },
    {
      "mesh": 0,
      "name": "defaultMaterial"
    }
  ],
  "samplers": [
    {
      "magFilter": 9729,
      "minFilter": 9987,
      "wrapS": 10497,
      "wrapT": 10497
    }
  ],
  "scene": 0,
  "scenes": [
    {
      "name": "Sketchfab_Scene",
      "nodes": [
        0
      ]
    }
  ],
  "textures": [
    {
      "sampler": 0,
      "source": 0
    },
    {
      "sampler": 0,
      "source": 1
    },
    {
      "sampler": 0,
      "source": 2
    }
  ]
}
