{
  "accessors": [
    {
      "bufferView": 2,
      "componentType": 5126,
      "count": 11527,
      "max": [
        7.994152545928955,
        42.293968200683594,
        15.723762512207031
      ],
      "min": [
        -7.115540027618408,
        0.31222769618034363,
        -17.08810043334961
      ],
      "type": "VEC3"
    },
    {
      "bufferView": 2,
      "byteOffset": 138324,
      "componentType": 5126,
      "count": 11527,
      "max": [
        0.9997043013572693,
        0.9999582171440125,
        0.9998648762702942
      ],
      "min": [
        -0.9999094009399414,
        -0.9998612999916077,
        -0.999648928642273
      ],
      "type": "VEC3"
    },
    {
      "bufferView": 3,
      "componentType": 5126,
      "count": 11527,
      "max": [
        0.9999545216560364,
        0.9996194243431091,
        0.999665379524231,
        1.0
      ],
      "min": [
        -0.9998898506164551,
        -0.9999253749847412,
        -0.999932050704956,
        -1.0
      ],
      "type": "VEC4"
    },
    {
      "bufferView": 1,
      "componentType": 5126,
      "count": 11527,
      "max": [
        0.9963390231132507,
        0.9963070154190063
      ],
      "min": [
        0.0027199999894946814,
        0.0048870001919567585
      ],
      "type": "VEC2"
    },
    {
      "bufferView": 0,
      "componentType": 5125,
      "count": 61932,
      "type": "SCALAR"
    }
  ],
  "asset": {
    "extras": {
      "author": "DivyeSh PanchAl (https://sketchfab.com/DivyeSh.PanchAl)",
      "license": "CC-BY-4.0 (http://creativecommons.org/licenses/by/4.0/)",
      "source": "https://sketchfab.com/3d-models/sports-guy-414d816125904464be0ae6e064c05d77",
      "title": "Sports Guy"
    },
    "generator": "Sketchfab-10.64.0",
    "version": "2.0"
  },
  "bufferViews": [
    {
      "buffer": 0,
      "byteLength": 247728,
      "name": "floatBufferViews",
      "target": 34963
    },
    {
      "buffer": 0,
      "byteLength": 92216,
      "byteOffset": 247728,
      "byteStride": 8,
      "name": "floatBufferViews",
      "target": 34962
    },
    {
      "buffer": 0,
      "byteLength": 276648,
      "byteOffset": 339944,
      "byteStride": 12,
      "name": "floatBufferViews",
      "target": 34962
    },
    {
      "buffer": 0,
      "byteLength": 184432,
      "byteOffset": 616592,
      "byteStride": 16,
      "name": "floatBufferViews",
      "target": 34962
    }
  ],
  "buffers": [
    {
      "byteLength": 801024,
      "uri": "scene.bin"
    }
  ],
  "images": [
    {
      "uri": "Sports_Guy_Mat_baseColor.png"
    },
    {
      "uri": "Sports_Guy_Mat_metallicRoughness.png"
    },
    {
      "uri": "Sports_Guy_Mat_normal.png"
    }
  ],
  "materials": [
    {
      "alphaMode": "BLEND",
      "doubleSided": true,
      "name": "Sports_Guy_Mat",
      "normalTexture": {
        "index": 2
      },
      "occlusionTexture": {
        "index": 1
      },
      "pbrMetallicRoughness": {
        "baseColorTexture": {
          "index": 0
        },
        "metallicRoughnessTexture": {
          "index": 1
        }
      }
    }
  ],
  "meshes": [
    {
      "name": "Sports_guy_High_Sports_Guy_Mat_0",
      "primitives": [
        {
          "attributes": {
            "NORMAL": 1,
            "POSITION": 0,
            "TANGENT": 2,
            "TEXCOORD_0": 3
          },
          "indices": 4,
          "material": 0,
          "mode": 4
        }
      ]
    }
  ],
  "nodes": [
    {
      "children": [
        1
      ],
      "matrix": [
        1.0,
        0.0,
        0.0,
        0.0,
        0.0,
        2.220446049250313e-16,
        -1.0,
        0.0,
        0.0,
        1.0,
        2.220446049250313e-16,
        0.0,
        0.0,
        0.0,
        0.0,
        1.0
      ],
      "name": "Sketchfab_model"
    },
    {
      "children": [
        2
      ],
      "matrix": [
        1.0,
        0.0,
        0.0,
        0.0,
        0.0,
        0.0,
        1.0,
        0.0,
        0.0,
        -1.0,
        0.0,
        0.0,
        0.0,
        0.0,
        0.0,
        1.0
      ],
      "name": "6adf5a5d3e9c4ab5bec69ae70891a769.fbx"
    },
    {
      "children": [
        3
      ],
      "name": "RootNode"
    },
    {
      "children": [
        4
      ],
      "matrix": [
        0.009999999776482582,
        0.0,
        0.0,
        0.0,
        0.0,
        0.009999999776482582,
        0.0,
        0.0,
        0.0,
        0.0,
        0.009999999776482582,
        0.0,
        0.0,
        0.0,
        0.0,
        1.0
      ],
      "name": "Sports_guy_High"
    },
    {
      "mesh": 0,
      "name": "Sports_guy_High_Sports_Guy_Mat_0"
    }
  ],
  "samplers": [
    {
      "magFilter": 9729,
      "minFilter": 9987,
      "wrapS": 10497,
      "wrapT": 10497
    }
  ],
  "scene": 0,
  "scenes": [
    {
      "name": "Sketchfab_Scene",
      "nodes": [
        0
      ]
    }
  ],
  "textures": [
    {
      "sampler": 0,
      "source": 0
    },
    {
      "sampler": 0,
      "source": 1
    },
    {
      "sampler": 0,
      "source": 2
    }
  ]
}
