{
  "accessors": [
    {
      "bufferView": 2,
      "componentType": 5126,
      "count": 2372,
      "max": [
        0.82945907115936279,
        0.64318311214447021,
        1.6802723407745361
      ],
      "min": [
        -1.8881206512451172,
        0.040156934410333633,
        -1.2853209972381592
      ],
      "type": "VEC3"
    },
    {
      "bufferView": 2,
      "byteOffset": 28464,
      "componentType": 5126,
      "count": 2372,
      "max": [
        0.99831598997116089,
        0.99990719556808472,
        0.99913305044174194
      ],
      "min": [
        -0.97150576114654541,
        -1,
        -0.99984985589981079
      ],
      "type": "VEC3"
    },
    {
      "bufferView": 3,
      "componentType": 5126,
      "count": 2372,
      "max": [
        0.99997931718826294,
        0.99999523162841797,
        0.99997407197952271,
        1
      ],
      "min": [
        -0.95440167188644409,
        -0.99962067604064941,
        -0.99999749660491943,
        -1
      ],
      "type": "VEC4"
    },
    {
      "bufferView": 3,
      "byteOffset": 37952,
      "componentType": 5126,
      "count": 2372,
      "max": [
        0,
        0,
        0,
        1
      ],
      "min": [
        0,
        0,
        0,
        0
      ],
      "type": "VEC4"
    },
    {
      "bufferView": 1,
      "componentType": 5126,
      "count": 2372,
      "max": [
        0.97768700122833252,
        0.97572100162506104
      ],
      "min": [
        0.020884528756141663,
        0.053347177803516388
      ],
      "type": "VEC2"
    },
    {
      "bufferView": 0,
      "componentType": 5125,
      "count": 11118,
      "max": [
        2371
      ],
      "min": [
        0
      ],
      "type": "SCALAR"
    }
  ],
  "asset": {
    "extras": {
      "author": "rubiez (https://sketchfab.com/rubiez)",
      "license": "CC-BY-4.0 (http://creativecommons.org/licenses/by/4.0/)",
      "source": "https://sketchfab.com/models/f3fed278f56e49528c78e6c4c311777d",
      "title": "Mechanical Gloves"
    },
    "generator": "Sketchfab-3.22.13",
    "version": "2.0"
  },
  "bufferViews": [
    {
      "buffer": 0,
      "byteLength": 44472,
      "byteOffset": 0,
      "name": "floatBufferViews",
      "target": 34963
    },
    {
      "buffer": 0,
      "byteLength": 18976,
      "byteOffset": 44472,
      "byteStride": 8,
      "name": "floatBufferViews",
      "target": 34962
    },
    {
      "buffer": 0,
      "byteLength": 56928,
      "byteOffset": 63448,
      "byteStride": 12,
      "name": "floatBufferViews",
      "target": 34962
    },
    {
      "buffer": 0,
      "byteLength": 75904,
      "byteOffset": 120376,
      "byteStride": 16,
      "name": "floatBufferViews",
      "target": 34962
    }
  ],
  "buffers": [
    {
      "byteLength": 196280,
      "uri": "scene.bin"
    }
  ],
  "images": [
    {
      "uri": "MechGLoves_Mat_baseColor.png"
    },
    {
      "uri": "MechGLoves_Mat_normal.png"
    },
    {
      "uri": "MechGLoves_Mat_metallicRoughness.png"
    }
  ],
  "materials": [
    {
      "doubleSided": true,
      "name": "MechGLoves_Mat",
      "normalTexture": {
        "index": 1,
        "scale": 1,
        "texCoord": 0
      },
      "pbrMetallicRoughness": {
        "baseColorFactor": [
          1,
          1,
          1,
          1
        ],
        "baseColorTexture": {
          "index": 0,
          "texCoord": 0
        },
        "metallicFactor": 0,
        "metallicRoughnessTexture": {
          "index": 2,
          "texCoord": 0
        },
        "roughnessFactor": 1
      }
    }
  ],
  "meshes": [
    {
      "name": "Mechanical_Gloves_MechGLoves_Mat_0",
      "primitives": [
        {
          "attributes": {
            "COLOR_0": 3,
            "NORMAL": 1,
            "POSITION": 0,
            "TANGENT": 2,
            "TEXCOORD_0": 4
          },
          "indices": 5,
          "material": 0,
          "mode": 4
        }
      ]
    }
  ],
  "nodes": [
    {
      "children": [
        1
      ],
      "name": "RootNode (gltf orientation matrix)",
      "rotation": [
        -0.70710678118654746,
        -0,
        -0,
        0.70710678118654757
      ]
    },
    {
      "children": [
        2
      ],
      "name": "RootNode (model correction matrix)"
    },
    {
      "children": [
        3
      ],
      "matrix": [
        1,
        0,
        0,
        0,
        0,
        0,
        1,
        0,
        0,
        -1,
        0,
        0,
        0,
        0,
        0,
        1
      ],
      "name": "5302a3c5a0a0447fad97f6a93c3a8407.fbx"
    },
    {
      "children": [
        4
      ],
      "name": "RootNode"
    },
    {
      "children": [
        5
      ],
      "name": "Mechanical_Gloves"
    },
    {
      "mesh": 0,
      "name": "Mechanical_Gloves_MechGLoves_Mat_0"
    }
  ],
  "samplers": [
    {
      "magFilter": 9729,
      "minFilter": 9987,
      "wrapS": 10497,
      "wrapT": 10497
    }
  ],
  "scene": 0,
  "scenes": [
    {
      "name": "OSG_Scene",
      "nodes": [
        0
      ]
    }
  ],
  "textures": [
    {
      "sampler": 0,
      "source": 0
    },
    {
      "sampler": 0,
      "source": 1
    },
    {
      "sampler": 0,
      "source": 2
    }
  ]
}

