{
  "accessors": [
    {
      "bufferView": 2,
      "componentType": 5126,
      "count": 434,
      "max": [
        0.5043146014213562,
        0.50431561470031738,
        0.076653167605400085
      ],
      "min": [
        -0.50431525707244873,
        -0.504314124584198,
        -0.022346973419189453
      ],
      "type": "VEC3"
    },
    {
      "bufferView": 2,
      "byteOffset": 5208,
      "componentType": 5126,
      "count": 434,
      "max": [
        0.98113781213760376,
        0.98113781213760376,
        1
      ],
      "min": [
        -0.98113781213760376,
        -0.98113781213760376,
        -1
      ],
      "type": "VEC3"
    },
    {
      "bufferView": 1,
      "componentType": 5126,
      "count": 434,
      "max": [
        0.79199916124343872,
        0.77967488765716553
      ],
      "min": [
        0.79199916124343872,
        0.77967488765716553
      ],
      "type": "VEC2"
    },
    {
      "bufferView": 0,
      "componentType": 5125,
      "count": 2640,
      "max": [
        433
      ],
      "min": [
        0
      ],
      "type": "SCALAR"
    },
    {
      "bufferView": 2,
      "byteOffset": 10416,
      "componentType": 5126,
      "count": 180,
      "max": [
        0.14711488783359528,
        0.16921515762805939,
        0.11795583367347717
      ],
      "min": [
        -0.14711563289165497,
        -0.16921135783195496,
        -0.0044039292261004448
      ],
      "type": "VEC3"
    },
    {
      "bufferView": 2,
      "byteOffset": 12576,
      "componentType": 5126,
      "count": 180,
      "max": [
        0.9999992847442627,
        0.99999916553497314,
        0.98887944221496582
      ],
      "min": [
        -0.9999992847442627,
        -0.99999916553497314,
        -0.99238884449005127
      ],
      "type": "VEC3"
    },
    {
      "bufferView": 3,
      "componentType": 5126,
      "count": 180,
      "max": [
        1,
        0.74110507965087891,
        0.98077350854873657,
        1
      ],
      "min": [
        -0.99922215938568115,
        -0.74127918481826782,
        -0.97624760866165161,
        1
      ],
      "type": "VEC4"
    },
    {
      "bufferView": 1,
      "byteOffset": 3472,
      "componentType": 5126,
      "count": 180,
      "max": [
        0.78822600841522217,
        0.22008150815963745
      ],
      "min": [
        0.68824809789657593,
        0.15893375873565674
      ],
      "type": "VEC2"
    },
    {
      "bufferView": 0,
      "byteOffset": 10560,
      "componentType": 5125,
      "count": 864,
      "max": [
        179
      ],
      "min": [
        0
      ],
      "type": "SCALAR"
    },
    {
      "bufferView": 2,
      "byteOffset": 14736,
      "componentType": 5126,
      "count": 29213,
      "max": [
        0.64871877431869507,
        0.52738678455352783,
        -0.11943250894546509
      ],
      "min": [
        0.11435198783874512,
        -0.38570678234100342,
        -0.38516482710838318
      ],
      "type": "VEC3"
    },
    {
      "bufferView": 2,
      "byteOffset": 365292,
      "componentType": 5126,
      "count": 29213,
      "max": [
        0.99991130828857422,
        0.99952423572540283,
        0.9999922513961792
      ],
      "min": [
        -0.99995911121368408,
        -0.99806642532348633,
        -0.99997913837432861
      ],
      "type": "VEC3"
    },
    {
      "bufferView": 3,
      "byteOffset": 2880,
      "componentType": 5126,
      "count": 29213,
      "max": [
        1,
        0.99999910593032837,
        0.99999994039535522,
        1
      ],
      "min": [
        -1,
        -1,
        -0.99999994039535522,
        -1
      ],
      "type": "VEC4"
    },
    {
      "bufferView": 1,
      "byteOffset": 4912,
      "componentType": 5126,
      "count": 29213,
      "max": [
        0.99972367286682129,
        0.86918038129806519
      ],
      "min": [
        0.00027646421222016215,
        0.00027646424132399261
      ],
      "type": "VEC2"
    },
    {
      "bufferView": 0,
      "byteOffset": 14016,
      "componentType": 5125,
      "count": 147216,
      "max": [
        29212
      ],
      "min": [
        0
      ],
      "type": "SCALAR"
    }
  ],
  "asset": {
    "extras": {
      "author": "chambersu (https://sketchfab.com/chambersu1996)",
      "license": "CC-BY-4.0 (http://creativecommons.org/licenses/by/4.0/)",
      "source": "https://sketchfab.com/3d-models/trousers-for-ray-ii-836ccbe0600f44ceb0c7b4c217843fe4",
      "title": "Trousers For Ray II"
    },
    "generator": "Sketchfab-8.81.0",
    "version": "2.0"
  },
  "bufferViews": [
    {
      "buffer": 0,
      "byteLength": 602880,
      "byteOffset": 0,
      "name": "floatBufferViews",
      "target": 34963
    },
    {
      "buffer": 0,
      "byteLength": 238616,
      "byteOffset": 602880,
      "byteStride": 8,
      "name": "floatBufferViews",
      "target": 34962
    },
    {
      "buffer": 0,
      "byteLength": 715848,
      "byteOffset": 841496,
      "byteStride": 12,
      "name": "floatBufferViews",
      "target": 34962
    },
    {
      "buffer": 0,
      "byteLength": 470288,
      "byteOffset": 1557344,
      "byteStride": 16,
      "name": "floatBufferViews",
      "target": 34962
    }
  ],
  "buffers": [
    {
      "byteLength": 2027632,
      "uri": "scene.bin"
    }
  ],
  "images": [
    {
      "uri": "FabricDarkForTrousers_baseColor.png"
    },
    {
      "uri": "FabricDarkForTrousers_normal.png"
    }
  ],
  "materials": [
    {
      "doubleSided": true,
      "emissiveFactor": [
        0,
        0,
        0
      ],
      "name": "DarkButton",
      "pbrMetallicRoughness": {
        "baseColorFactor": [
          0.043316993494476673,
          0.043316993494476673,
          0.043316993494476673,
          1
        ],
        "metallicFactor": 0,
        "roughnessFactor": 0.43259368984279695
      }
    },
    {
      "alphaMode": "BLEND",
      "doubleSided": true,
      "emissiveFactor": [
        0,
        0,
        0
      ],
      "name": "FabricDarkForTrousers",
      "normalTexture": {
        "index": 1,
        "scale": 0.25,
        "texCoord": 0
      },
      "pbrMetallicRoughness": {
        "baseColorFactor": [
          0.5,
          0.5,
          0.5,
          0.94999999999999996
        ],
        "baseColorTexture": {
          "index": 0,
          "texCoord": 0
        },
        "metallicFactor": 0,
        "roughnessFactor": 0.59999999999999998
      }
    }
  ],
  "meshes": [
    {
      "name": "Circle.027_DarkButton_0",
      "primitives": [
        {
          "attributes": {
            "NORMAL": 1,
            "POSITION": 0,
            "TEXCOORD_0": 2
          },
          "indices": 3,
          "material": 0,
          "mode": 4
        }
      ]
    },
    {
      "name": "Circle.027_FabricDarkForTrousers_0",
      "primitives": [
        {
          "attributes": {
            "NORMAL": 5,
            "POSITION": 4,
            "TANGENT": 6,
            "TEXCOORD_0": 7
          },
          "indices": 8,
          "material": 1,
          "mode": 4
        }
      ]
    },
    {
      "name": "RealTrousers.001_FabricDarkForTrousers_0",
      "primitives": [
        {
          "attributes": {
            "NORMAL": 10,
            "POSITION": 9,
            "TANGENT": 11,
            "TEXCOORD_0": 12
          },
          "indices": 13,
          "material": 1,
          "mode": 4
        }
      ]
    }
  ],
  "nodes": [
    {
      "children": [
        1
      ],
      "name": "RootNode (gltf orientation matrix)",
      "rotation": [
        -0.70710678118654746,
        -0,
        -0,
        0.70710678118654757
      ]
    },
    {
      "children": [
        2
      ],
      "name": "RootNode (model correction matrix)"
    },
    {
      "children": [
        3
      ],
      "matrix": [
        1,
        0,
        0,
        0,
        0,
        0,
        1,
        0,
        0,
        -1,
        0,
        0,
        0,
        0,
        0,
        1
      ],
      "name": "5e63b8a7034d46549a0eac8273d3c5c6.fbx"
    },
    {
      "children": [
        4,
        7
      ],
      "name": "RootNode"
    },
    {
      "children": [
        5,
        6
      ],
      "matrix": [
        0.96148552694565603,
        -0.25596744222362966,
        -0.10008353148795426,
        0,
        0.24947703524304812,
        0.96562506841791296,
        -0.072939274922838998,
        0,
        0.11531377581942787,
        0.045161721744275789,
        0.99229708054907384,
        0,
        -1.1035802364349365,
        97.806617736816406,
        13.866098403930664,
        1
      ],
      "name": "Circle.027"
    },
    {
      "mesh": 0,
      "name": "Circle.027_DarkButton_0"
    },
    {
      "mesh": 1,
      "name": "Circle.027_FabricDarkForTrousers_0"
    },
    {
      "children": [
        8
      ],
      "matrix": [
        80.999771118164062,
        0,
        0,
        0,
        0,
        80.999771118163977,
        3.540612158713975e-06,
        0,
        0,
        -3.540612158713975e-06,
        80.999771118163977,
        0,
        -30.841255187988281,
        58.903884887695312,
        24.172782897949219,
        1
      ],
      "name": "RealTrousers.001"
    },
    {
      "mesh": 2,
      "name": "RealTrousers.001_FabricDarkForTrousers_0"
    }
  ],
  "samplers": [
    {
      "magFilter": 9729,
      "minFilter": 9987,
      "wrapS": 10497,
      "wrapT": 10497
    }
  ],
  "scene": 0,
  "scenes": [
    {
      "name": "OSG_Scene",
      "nodes": [
        0
      ]
    }
  ],
  "textures": [
    {
      "sampler": 0,
      "source": 0
    },
    {
      "sampler": 0,
      "source": 1
    }
  ]
}

