{
  "accessors": [
    {
      "bufferView": 2,
      "componentType": 5126,
      "count": 65533,
      "max": [
        0.1000330001115799,
        0.08691500127315521,
        0.2856079936027527
      ],
      "min": [
        -0.09839499741792679,
        -0.11862500011920929,
        0.0024029999040067196
      ],
      "type": "VEC3"
    },
    {
      "bufferView": 2,
      "byteOffset": 786396,
      "componentType": 5126,
      "count": 65533,
      "max": [
        0.9999747276306152,
        0.9998927116394043,
        0.9999786615371704
      ],
      "min": [
        -0.9936507344245911,
        -0.9998992681503296,
        -0.9988659620285034
      ],
      "type": "VEC3"
    },
    {
      "bufferView": 3,
      "componentType": 5126,
      "count": 65533,
      "max": [
        0.9803215861320496,
        1.0,
        0.999301552772522,
        1.0
      ],
      "min": [
        -0.9786526560783386,
        -0.9999988675117493,
        -0.9992886185646057,
        -1.0
      ],
      "type": "VEC4"
    },
    {
      "bufferView": 1,
      "componentType": 5126,
      "count": 65533,
      "max": [
        0.9983609914779663,
        0.9675289988517761
      ],
      "min": [
        0.00024399999529123306,
        0.00113800005055964
      ],
      "type": "VEC2"
    },
    {
      "bufferView": 0,
      "componentType": 5125,
      "count": 65574,
      "type": "SCALAR"
    },
    {
      "bufferView": 2,
      "byteOffset": 1572792,
      "componentType": 5126,
      "count": 65532,
      "max": [
        0.09237699955701828,
        0.08691500127315521,
        0.2855989933013916
      ],
      "min": [
        -0.10837399959564209,
        -0.11445800215005875,
        0.008925000205636024
      ],
      "type": "VEC3"
    },
    {
      "bufferView": 2,
      "byteOffset": 2359176,
      "componentType": 5126,
      "count": 65532,
      "max": [
        0.9889956712722778,
        0.9998791217803955,
        0.9998769760131836
      ],
      "min": [
        -0.9970957040786743,
        -0.9949901700019836,
        -0.9211817383766174
      ],
      "type": "VEC3"
    },
    {
      "bufferView": 3,
      "byteOffset": 1048528,
      "componentType": 5126,
      "count": 65532,
      "max": [
        0.9573686718940735,
        1.0,
        0.9992876052856445,
        1.0
      ],
      "min": [
        -0.9496732950210571,
        -1.0,
        -0.9992848634719849,
        -1.0
      ],
      "type": "VEC4"
    },
    {
      "bufferView": 1,
      "byteOffset": 524264,
      "componentType": 5126,
      "count": 65532,
      "max": [
        0.9987620115280151,
        0.7155759930610657
      ],
      "min": [
        0.00024399999529123306,
        0.0011449999874457717
      ],
      "type": "VEC2"
    },
    {
      "bufferView": 0,
      "byteOffset": 262296,
      "componentType": 5125,
      "count": 65574,
      "type": "SCALAR"
    },
    {
      "bufferView": 2,
      "byteOffset": 3145560,
      "componentType": 5126,
      "count": 65533,
      "max": [
        0.100102998316288,
        0.08214200288057327,
        0.20567099750041962
      ],
      "min": [
        -0.10915499925613403,
        -0.11454000324010849,
        0.0018729999428614974
      ],
      "type": "VEC3"
    },
    {
      "bufferView": 2,
      "byteOffset": 3931956,
      "componentType": 5126,
      "count": 65533,
      "max": [
        0.9999892711639404,
        0.9773641228675842,
        0.9820094704627991
      ],
      "min": [
        -0.9999344348907471,
        -0.9918428063392639,
        -0.9999957084655762
      ],
      "type": "VEC3"
    },
    {
      "bufferView": 3,
      "byteOffset": 2097040,
      "componentType": 5126,
      "count": 65533,
      "max": [
        0.8918779492378235,
        1.0,
        0.9992793202400208,
        1.0
      ],
      "min": [
        -0.9940103888511658,
        -1.0,
        -0.9992848634719849,
        -1.0
      ],
      "type": "VEC4"
    },
    {
      "bufferView": 1,
      "byteOffset": 1048520,
      "componentType": 5126,
      "count": 65533,
      "max": [
        0.9987429976463318,
        0.9865720272064209
      ],
      "min": [
        0.00024399999529123306,
        0.0013539999490603805
      ],
      "type": "VEC2"
    },
    {
      "bufferView": 0,
      "byteOffset": 524592,
      "componentType": 5125,
      "count": 65583,
      "type": "SCALAR"
    },
    {
      "bufferView": 2,
      "byteOffset": 4718352,
      "componentType": 5126,
      "count": 249,
      "max": [
        0.05454599857330322,
        -0.09934400022029877,
        0.20418600738048553
      ],
      "min": [
        0.009328999556601048,
        -0.11176200211048126,
        0.10585000365972519
      ],
      "type": "VEC3"
    },
    {
      "bufferView": 2,
      "byteOffset": 4721340,
      "componentType": 5126,
      "count": 249,
      "max": [
        0.6728178262710571,
        -0.7225191593170166,
        0.277489572763443
      ],
      "min": [
        0.13259629905223846,
        -0.9711728692054749,
        -0.26910337805747986
      ],
      "type": "VEC3"
    },
    {
      "bufferView": 3,
      "byteOffset": 3145568,
      "componentType": 5126,
      "count": 249,
      "max": [
        0.038484420627355576,
        0.30010929703712463,
        0.9991520643234253,
        1.0
      ],
      "min": [
        -0.1750536412000656,
        -0.28935524821281433,
        -0.9831129908561707,
        -1.0
      ],
      "type": "VEC4"
    },
    {
      "bufferView": 1,
      "byteOffset": 1572784,
      "componentType": 5126,
      "count": 249,
      "max": [
        0.8285409808158875,
        0.9243639707565308
      ],
      "min": [
        0.23279699683189392,
        0.7792099714279175
      ],
      "type": "VEC2"
    },
    {
      "bufferView": 0,
      "byteOffset": 786924,
      "componentType": 5125,
      "count": 249,
      "type": "SCALAR"
    }
  ],
  "asset": {
    "extras": {
      "author": "STUDIO DUCKBILL (https://sketchfab.com/DuckbillStudio)",
      "license": "CC-BY-4.0 (http://creativecommons.org/licenses/by/4.0/)",
      "source": "https://sketchfab.com/3d-models/watermelon-5a0ae2276ac845c9a93b240c076aae19",
      "title": "Watermelon"
    },
    "generator": "Sketchfab-11.49.0",
    "version": "2.0"
  },
  "bufferViews": [
    {
      "buffer": 0,
      "byteLength": 787920,
      "name": "floatBufferViews",
      "target": 34963
    },
    {
      "buffer": 0,
      "byteLength": 1574776,
      "byteOffset": 787920,
      "byteStride": 8,
      "name": "floatBufferViews",
      "target": 34962
    },
    {
      "buffer": 0,
      "byteLength": 4724328,
      "byteOffset": 2362696,
      "byteStride": 12,
      "name": "floatBufferViews",
      "target": 34962
    },
    {
      "buffer": 0,
      "byteLength": 3149552,
      "byteOffset": 7087024,
      "byteStride": 16,
      "name": "floatBufferViews",
      "target": 34962
    }
  ],
  "buffers": [
    {
      "byteLength": 10236576,
      "uri": "scene.bin"
    }
  ],
  "images": [
    {
      "uri": "WaterMelon_u0_v0_baseColor.jpeg"
    },
    {
      "uri": "WaterMelon_u0_v0_normal.png"
    }
  ],
  "materials": [
    {
      "name": "WaterMelon_u0_v0",
      "normalTexture": {
        "index": 1
      },
      "pbrMetallicRoughness": {
        "baseColorTexture": {
          "index": 0
        },
        "metallicFactor": 0.0,
        "roughnessFactor": 0.5972519957420193
      }
    }
  ],
  "meshes": [
    {
      "name": "Object_0",
      "primitives": [
        {
          "attributes": {
            "NORMAL": 1,
            "POSITION": 0,
            "TANGENT": 2,
            "TEXCOORD_0": 3
          },
          "indices": 4,
          "material": 0,
          "mode": 4
        }
      ]
    },
    {
      "name": "Object_1",
      "primitives": [
        {
          "attributes": {
            "NORMAL": 6,
            "POSITION": 5,
            "TANGENT": 7,
            "TEXCOORD_0": 8
          },
          "indices": 9,
          "material": 0,
          "mode": 4
        }
      ]
    },
    {
      "name": "Object_2",
      "primitives": [
        {
          "attributes": {
            "NORMAL": 11,
            "POSITION": 10,
            "TANGENT": 12,
            "TEXCOORD_0": 13
          },
          "indices": 14,
          "material": 0,
          "mode": 4
        }
      ]
    },
    {
      "name": "Object_3",
      "primitives": [
        {
          "attributes": {
            "NORMAL": 16,
            "POSITION": 15,
            "TANGENT": 17,
            "TEXCOORD_0": 18
          },
          "indices": 19,
          "material": 0,
          "mode": 4
        }
      ]
    }
  ],
  "nodes": [
    {
      "children": [
        1
      ],
      "matrix": [
        1.0,
        0.0,
        0.0,
        0.0,
        0.0,
        2.220446049250313e-16,
        -1.0,
        0.0,
        0.0,
        1.0,
        2.220446049250313e-16,
        0.0,
        0.0,
        0.0,
        0.0,
        1.0
      ],
      "name": "Sketchfab_model"
    },
    {
      "children": [
        2,
        3,
        4,
        5
      ],
      "name": "WaterMelon.obj.cleaner.materialmerger.gles"
    },
    {
      "mesh": 0,
      "name": "Object_2"
    },
    {
      "mesh": 1,
      "name": "Object_3"
    },
    {
      "mesh": 2,
      "name": "Object_4"
    },
    {
      "mesh": 3,
      "name": "Object_5"
    }
  ],
  "samplers": [
    {
      "magFilter": 9729,
      "minFilter": 9987,
      "wrapS": 10497,
      "wrapT": 10497
    }
  ],
  "scene": 0,
  "scenes": [
    {
      "name": "Sketchfab_Scene",
      "nodes": [
        0
      ]
    }
  ],
  "textures": [
    {
      "sampler": 0,
      "source": 0
    },
    {
      "sampler": 0,
      "source": 1
    }
  ]
}
