{
  "accessors": [
    {
      "bufferView": 2,
      "componentType": 5126,
      "count": 9942,
      "max": [
        5.185665130615234,
        11.989056587219238,
        157.34140014648438
      ],
      "min": [
        -5.6174540519714355,
        1.877200961112976,
        152.82870483398438
      ],
      "type": "VEC3"
    },
    {
      "bufferView": 2,
      "byteOffset": 119304,
      "componentType": 5126,
      "count": 9942,
      "max": [
        0.9999582171440125,
        0.9996829032897949,
        0.9998465180397034
      ],
      "min": [
        -0.9994627833366394,
        -0.9992223381996155,
        -0.9999894499778748
      ],
      "type": "VEC3"
    },
    {
      "bufferView": 1,
      "componentType": 5126,
      "count": 9942,
      "max": [
        0.9980469942092896,
        0.9948359727859497
      ],
      "min": [
        0.0019529999699443579,
        0.0019529999699443579
      ],
      "type": "VEC2"
    },
    {
      "bufferView": 0,
      "componentType": 5125,
      "count": 53928,
      "type": "SCALAR"
    },
    {
      "bufferView": 2,
      "byteOffset": 238608,
      "componentType": 5126,
      "count": 9951,
      "max": [
        5.783847808837891,
        12.352629661560059,
        157.3374786376953
      ],
      "min": [
        -5.8444671630859375,
        1.865676999092102,
        152.2767791748047
      ],
      "type": "VEC3"
    },
    {
      "bufferView": 2,
      "byteOffset": 358020,
      "componentType": 5126,
      "count": 9951,
      "max": [
        0.9999580979347229,
        0.9996938705444336,
        0.9998197555541992
      ],
      "min": [
        -0.9999542236328125,
        -0.9992996454238892,
        -0.999934732913971
      ],
      "type": "VEC3"
    },
    {
      "bufferView": 1,
      "byteOffset": 79536,
      "componentType": 5126,
      "count": 9951,
      "max": [
        0.9975060224533081,
        0.9979410171508789
      ],
      "min": [
        0.0019529999699443579,
        0.0019529999699443579
      ],
      "type": "VEC2"
    },
    {
      "bufferView": 0,
      "byteOffset": 215712,
      "componentType": 5125,
      "count": 53928,
      "type": "SCALAR"
    },
    {
      "bufferView": 2,
      "byteOffset": 477432,
      "componentType": 5126,
      "count": 9935,
      "max": [
        5.602673053741455,
        11.873221397399902,
        156.40309143066406
      ],
      "min": [
        -6.084558010101318,
        -11.073958396911621,
        128.8710479736328
      ],
      "type": "VEC3"
    },
    {
      "bufferView": 2,
      "byteOffset": 596652,
      "componentType": 5126,
      "count": 9935,
      "max": [
        0.9997676610946655,
        0.9996447563171387,
        0.9997729063034058
      ],
      "min": [
        -0.9999563694000244,
        -0.9993406534194946,
        -0.9999894499778748
      ],
      "type": "VEC3"
    },
    {
      "bufferView": 1,
      "byteOffset": 159144,
      "componentType": 5126,
      "count": 9935,
      "max": [
        0.9820160269737244,
        0.9952830076217651
      ],
      "min": [
        0.0019529999699443579,
        0.0026310000102967024
      ],
      "type": "VEC2"
    },
    {
      "bufferView": 0,
      "byteOffset": 431424,
      "componentType": 5125,
      "count": 53928,
      "type": "SCALAR"
    },
    {
      "bufferView": 2,
      "byteOffset": 715872,
      "componentType": 5126,
      "count": 9911,
      "max": [
        2.4019598960876465,
        11.360923767089844,
        155.21180725097656
      ],
      "min": [
        -6.544994831085205,
        -16.161460876464844,
        98.22012329101563
      ],
      "type": "VEC3"
    },
    {
      "bufferView": 2,
      "byteOffset": 834804,
      "componentType": 5126,
      "count": 9911,
      "max": [
        0.9999442100524902,
        0.9995835423469543,
        0.9983338713645935
      ],
      "min": [
        -0.9999387860298157,
        -0.9998286366462708,
        -0.9998941421508789
      ],
      "type": "VEC3"
    },
    {
      "bufferView": 1,
      "byteOffset": 238624,
      "componentType": 5126,
      "count": 9911,
      "max": [
        0.9766989946365356,
        0.9760050177574158
      ],
      "min": [
        0.0019529999699443579,
        0.0019529999699443579
      ],
      "type": "VEC2"
    },
    {
      "bufferView": 0,
      "byteOffset": 647136,
      "componentType": 5125,
      "count": 53424,
      "type": "SCALAR"
    },
    {
      "bufferView": 2,
      "byteOffset": 953736,
      "componentType": 5126,
      "count": 9995,
      "max": [
        6.436291217803955,
        12.730256080627441,
        155.47598266601563
      ],
      "min": [
        -4.660529136657715,
        -16.161468505859375,
        98.22024536132813
      ],
      "type": "VEC3"
    },
    {
      "bufferView": 2,
      "byteOffset": 1073676,
      "componentType": 5126,
      "count": 9995,
      "max": [
        0.9998746514320374,
        0.9999948740005493,
        0.9990302324295044
      ],
      "min": [
        -0.9996898770332336,
        -0.9993406534194946,
        -0.9998030066490173
      ],
      "type": "VEC3"
    },
    {
      "bufferView": 1,
      "byteOffset": 317912,
      "componentType": 5126,
      "count": 9995,
      "max": [
        0.9345009922981262,
        0.9826350212097168
      ],
      "min": [
        0.0019529999699443579,
        0.0019529999699443579
      ],
      "type": "VEC2"
    },
    {
      "bufferView": 0,
      "byteOffset": 860832,
      "componentType": 5125,
      "count": 53928,
      "type": "SCALAR"
    },
    {
      "bufferView": 2,
      "byteOffset": 1193616,
      "componentType": 5126,
      "count": 3945,
      "max": [
        2.6354711055755615,
        -9.709959983825684,
        138.37045288085938
      ],
      "min": [
        -2.0698719024658203,
        -16.099855422973633,
        98.36219024658203
      ],
      "type": "VEC3"
    },
    {
      "bufferView": 2,
      "byteOffset": 1240956,
      "componentType": 5126,
      "count": 3945,
      "max": [
        0.9986423850059509,
        0.9983893632888794,
        0.9959864616394043
      ],
      "min": [
        -0.999626100063324,
        -0.9997832179069519,
        -0.9993799924850464
      ],
      "type": "VEC3"
    },
    {
      "bufferView": 1,
      "byteOffset": 397872,
      "componentType": 5126,
      "count": 3945,
      "max": [
        0.9168369770050049,
        0.9054759740829468
      ],
      "min": [
        0.013830999843776226,
        0.0019529999699443579
      ],
      "type": "VEC2"
    },
    {
      "bufferView": 0,
      "byteOffset": 1076544,
      "componentType": 5125,
      "count": 21168,
      "type": "SCALAR"
    },
    {
      "bufferView": 2,
      "byteOffset": 1288296,
      "componentType": 5126,
      "count": 5073,
      "max": [
        26.206884384155273,
        38.32236862182617,
        154.10476684570313
      ],
      "min": [
        -28.21561622619629,
        -21.431209564208984,
        1.6594690084457397
      ],
      "type": "VEC3"
    },
    {
      "bufferView": 2,
      "byteOffset": 1349172,
      "componentType": 5126,
      "count": 5073,
      "max": [
        0.9999951124191284,
        0.9999958872795105,
        0.9768698811531067
      ],
      "min": [
        -0.9999672174453735,
        -0.9997934103012085,
        -0.803175687789917
      ],
      "type": "VEC3"
    },
    {
      "bufferView": 3,
      "componentType": 5126,
      "count": 5073,
      "max": [
        0.9996665716171265,
        0.9555447697639465,
        0.7471111416816711,
        1.0
      ],
      "min": [
        -0.9862204194068909,
        -0.9978520274162292,
        -0.9937764406204224,
        1.0
      ],
      "type": "VEC4"
    },
    {
      "bufferView": 1,
      "byteOffset": 429432,
      "componentType": 5126,
      "count": 5073,
      "max": [
        0.9980469942092896,
        0.9971389770507813
      ],
      "min": [
        0.0019529999699443579,
        0.0019529999699443579
      ],
      "type": "VEC2"
    },
    {
      "bufferView": 0,
      "byteOffset": 1161216,
      "componentType": 5125,
      "count": 27696,
      "type": "SCALAR"
    },
    {
      "bufferView": 2,
      "byteOffset": 1410048,
      "componentType": 5126,
      "count": 7533,
      "max": [
        30.079845428466797,
        19.7546329498291,
        158.13961791992188
      ],
      "min": [
        -30.34250259399414,
        -11.446130752563477,
        129.4139404296875
      ],
      "type": "VEC3"
    },
    {
      "bufferView": 2,
      "byteOffset": 1500444,
      "componentType": 5126,
      "count": 7533,
      "max": [
        0.9997069835662842,
        0.9998160004615784,
        0.9996413588523865
      ],
      "min": [
        -0.9972677826881409,
        -0.9997560977935791,
        -0.9987905025482178
      ],
      "type": "VEC3"
    },
    {
      "bufferView": 3,
      "byteOffset": 81168,
      "componentType": 5126,
      "count": 7533,
      "max": [
        0.9992865920066833,
        0.9957122206687927,
        0.9999756813049316,
        1.0
      ],
      "min": [
        -0.9982303977012634,
        -0.9999814033508301,
        -0.9999944567680359,
        -1.0
      ],
      "type": "VEC4"
    },
    {
      "bufferView": 1,
      "byteOffset": 470016,
      "componentType": 5126,
      "count": 7533,
      "max": [
        0.9980469942092896,
        0.9981189966201782
      ],
      "min": [
        0.0009490000084042549,
        0.0019529999699443579
      ],
      "type": "VEC2"
    },
    {
      "bufferView": 0,
      "byteOffset": 1272000,
      "componentType": 5125,
      "count": 42228,
      "type": "SCALAR"
    }
  ],
  "asset": {
    "extras": {
      "author": "Tijerín Art Studio (https://sketchfab.com/tije.tijeras)",
      "license": "CC-BY-4.0 (http://creativecommons.org/licenses/by/4.0/)",
      "source": "https://sketchfab.com/3d-models/evening-dress-1894-3fe75523c4fc44e6aae07d9497d85752",
      "title": "Evening Dress 1894"
    },
    "generator": "Sketchfab-11.96.0",
    "version": "2.0"
  },
  "bufferViews": [
    {
      "buffer": 0,
      "byteLength": 1440912,
      "name": "floatBufferViews",
      "target": 34963
    },
    {
      "buffer": 0,
      "byteLength": 530280,
      "byteOffset": 1440912,
      "byteStride": 8,
      "name": "floatBufferViews",
      "target": 34962
    },
    {
      "buffer": 0,
      "byteLength": 1590840,
      "byteOffset": 1971192,
      "byteStride": 12,
      "name": "floatBufferViews",
      "target": 34962
    },
    {
      "buffer": 0,
      "byteLength": 201696,
      "byteOffset": 3562032,
      "byteStride": 16,
      "name": "floatBufferViews",
      "target": 34962
    }
  ],
  "buffers": [
    {
      "byteLength": 3763728,
      "uri": "scene.bin"
    }
  ],
  "images": [
    {
      "uri": "VRayMtl1SG_baseColor.png"
    },
    {
      "uri": "VRayMtl1SG_normal.png"
    },
    {
      "uri": "VRayMtl3SG_baseColor.png"
    },
    {
      "uri": "VRayMtl3SG_normal.png"
    }
  ],
  "materials": [
    {
      "doubleSided": true,
      "name": "VRayMtl1SG",
      "normalTexture": {
        "index": 1
      },
      "pbrMetallicRoughness": {
        "baseColorTexture": {
          "index": 0
        },
        "metallicFactor": 0.0,
        "roughnessFactor": 0.6
      }
    },
    {
      "doubleSided": true,
      "name": "VRayMtl3SG",
      "normalTexture": {
        "index": 3
      },
      "pbrMetallicRoughness": {
        "baseColorTexture": {
          "index": 2
        },
        "metallicFactor": 0.0,
        "roughnessFactor": 0.6
      }
    },
    {
      "doubleSided": true,
      "name": "VRayMtl6SG",
      "pbrMetallicRoughness": {
        "metallicFactor": 0.31114066672836305,
        "roughnessFactor": 0.0
      }
    }
  ],
  "meshes": [
    {
      "name": "Object_0",
      "primitives": [
        {
          "attributes": {
            "NORMAL": 1,
            "POSITION": 0,
            "TEXCOORD_0": 2
          },
          "indices": 3,
          "material": 2,
          "mode": 4
        }
      ]
    },
    {
      "name": "Object_1",
      "primitives": [
        {
          "attributes": {
            "NORMAL": 5,
            "POSITION": 4,
            "TEXCOORD_0": 6
          },
          "indices": 7,
          "material": 2,
          "mode": 4
        }
      ]
    },
    {
      "name": "Object_2",
      "primitives": [
        {
          "attributes": {
            "NORMAL": 9,
            "POSITION": 8,
            "TEXCOORD_0": 10
          },
          "indices": 11,
          "material": 2,
          "mode": 4
        }
      ]
    },
    {
      "name": "Object_3",
      "primitives": [
        {
          "attributes": {
            "NORMAL": 13,
            "POSITION": 12,
            "TEXCOORD_0": 14
          },
          "indices": 15,
          "material": 2,
          "mode": 4
        }
      ]
    },
    {
      "name": "Object_4",
      "primitives": [
        {
          "attributes": {
            "NORMAL": 17,
            "POSITION": 16,
            "TEXCOORD_0": 18
          },
          "indices": 19,
          "material": 2,
          "mode": 4
        }
      ]
    },
    {
      "name": "Object_5",
      "primitives": [
        {
          "attributes": {
            "NORMAL": 21,
            "POSITION": 20,
            "TEXCOORD_0": 22
          },
          "indices": 23,
          "material": 2,
          "mode": 4
        }
      ]
    },
    {
      "name": "Object_6",
      "primitives": [
        {
          "attributes": {
            "NORMAL": 25,
            "POSITION": 24,
            "TANGENT": 26,
            "TEXCOORD_0": 27
          },
          "indices": 28,
          "material": 0,
          "mode": 4
        }
      ]
    },
    {
      "name": "Object_7",
      "primitives": [
        {
          "attributes": {
            "NORMAL": 30,
            "POSITION": 29,
            "TANGENT": 31,
            "TEXCOORD_0": 32
          },
          "indices": 33,
          "material": 1,
          "mode": 4
        }
      ]
    }
  ],
  "nodes": [
    {
      "children": [
        1
      ],
      "matrix": [
        1.0,
        0.0,
        0.0,
        0.0,
        0.0,
        2.220446049250313e-16,
        -1.0,
        0.0,
        0.0,
        1.0,
        2.220446049250313e-16,
        0.0,
        0.0,
        0.0,
        0.0,
        1.0
      ],
      "name": "Sketchfab_model"
    },
    {
      "children": [
        2,
        3,
        4,
        5,
        6,
        7,
        8,
        9
      ],
      "name": "Bestido.obj.cleaner.materialmerger.gles"
    },
    {
      "mesh": 0,
      "name": "Object_2"
    },
    {
      "mesh": 1,
      "name": "Object_3"
    },
    {
      "mesh": 2,
      "name": "Object_4"
    },
    {
      "mesh": 3,
      "name": "Object_5"
    },
    {
      "mesh": 4,
      "name": "Object_6"
    },
    {
      "mesh": 5,
      "name": "Object_7"
    },
    {
      "mesh": 6,
      "name": "Object_8"
    },
    {
      "mesh": 7,
      "name": "Object_9"
    }
  ],
  "samplers": [
    {
      "magFilter": 9729,
      "minFilter": 9987,
      "wrapS": 10497,
      "wrapT": 10497
    }
  ],
  "scene": 0,
  "scenes": [
    {
      "name": "Sketchfab_Scene",
      "nodes": [
        0
      ]
    }
  ],
  "textures": [
    {
      "sampler": 0,
      "source": 0
    },
    {
      "sampler": 0,
      "source": 1
    },
    {
      "sampler": 0,
      "source": 2
    },
    {
      "sampler": 0,
      "source": 3
    }
  ]
}
