{
  "accessors": [
    {
      "bufferView": 2,
      "componentType": 5126,
      "count": 65532,
      "max": [
        29.68812370300293,
        60.614730834960938,
        6.4714012145996094
      ],
      "min": [
        -28.851390838623047,
        -20.890018463134766,
        -5.3257269859313965
      ],
      "type": "VEC3"
    },
    {
      "bufferView": 2,
      "byteOffset": 786384,
      "componentType": 5126,
      "count": 65532,
      "max": [
        0.99999630451202393,
        0.9995080828666687,
        0.99999988079071045
      ],
      "min": [
        -0.99990701675415039,
        -0.99868476390838623,
        -0.99999523162841797
      ],
      "type": "VEC3"
    },
    {
      "bufferView": 3,
      "componentType": 5126,
      "count": 65532,
      "max": [
        0.99888116121292114,
        0.99881893396377563,
        0.99987190961837769,
        1
      ],
      "min": [
        -0.99971514940261841,
        -0.99896949529647827,
        -0.99999755620956421,
        -1
      ],
      "type": "VEC4"
    },
    {
      "bufferView": 1,
      "componentType": 5126,
      "count": 65532,
      "max": [
        1,
        1
      ],
      "min": [
        0,
        0
      ],
      "type": "VEC2"
    },
    {
      "bufferView": 0,
      "componentType": 5125,
      "count": 352356,
      "max": [
        65531
      ],
      "min": [
        0
      ],
      "type": "SCALAR"
    },
    {
      "bufferView": 2,
      "byteOffset": 1572768,
      "componentType": 5126,
      "count": 4744,
      "max": [
        28.622846603393555,
        60.608444213867188,
        6.4714012145996094
      ],
      "min": [
        -28.757415771484375,
        -20.453624725341797,
        -5.1539750099182129
      ],
      "type": "VEC3"
    },
    {
      "bufferView": 2,
      "byteOffset": 1629696,
      "componentType": 5126,
      "count": 4744,
      "max": [
        0.96741640567779541,
        0.9995080828666687,
        0.99989461898803711
      ],
      "min": [
        -0.99911481142044067,
        -0.98307198286056519,
        -0.99975138902664185
      ],
      "type": "VEC3"
    },
    {
      "bufferView": 3,
      "byteOffset": 1048512,
      "componentType": 5126,
      "count": 4744,
      "max": [
        0.99550884962081909,
        0.98736876249313354,
        0.9966583251953125,
        1
      ],
      "min": [
        -0.99901503324508667,
        -0.99787920713424683,
        -0.99993896484375,
        -1
      ],
      "type": "VEC4"
    },
    {
      "bufferView": 1,
      "byteOffset": 524256,
      "componentType": 5126,
      "count": 4744,
      "max": [
        0.99995797872543335,
        0.97949397563934326
      ],
      "min": [
        0.031047999858856201,
        0.0018789999885484576
      ],
      "type": "VEC2"
    },
    {
      "bufferView": 0,
      "byteOffset": 1409424,
      "componentType": 5125,
      "count": 9816,
      "max": [
        4743
      ],
      "min": [
        0
      ],
      "type": "SCALAR"
    }
  ],
  "asset": {
    "extras": {
      "author": "Ian Christopher (https://sketchfab.com/ianchrisjohn)",
      "license": "CC-BY-4.0 (http://creativecommons.org/licenses/by/4.0/)",
      "source": "https://sketchfab.com/models/87fc0c78eafa4a9f95b5739d9b9a23c0",
      "title": "Common Stingray"
    },
    "generator": "Sketchfab-4.4.0",
    "version": "2.0"
  },
  "bufferViews": [
    {
      "buffer": 0,
      "byteLength": 1448688,
      "byteOffset": 0,
      "name": "floatBufferViews",
      "target": 34963
    },
    {
      "buffer": 0,
      "byteLength": 562208,
      "byteOffset": 1448688,
      "byteStride": 8,
      "name": "floatBufferViews",
      "target": 34962
    },
    {
      "buffer": 0,
      "byteLength": 1686624,
      "byteOffset": 2010896,
      "byteStride": 12,
      "name": "floatBufferViews",
      "target": 34962
    },
    {
      "buffer": 0,
      "byteLength": 1124416,
      "byteOffset": 3697520,
      "byteStride": 16,
      "name": "floatBufferViews",
      "target": 34962
    }
  ],
  "buffers": [
    {
      "byteLength": 4821936,
      "uri": "scene.bin"
    }
  ],
  "images": [
    {
      "uri": "Common_Stingray_02_metallicRoughness.png"
    },
    {
      "uri": "Common_Stingray_02_baseColor.png"
    }
  ],
  "materials": [
    {
      "doubleSided": true,
      "emissiveFactor": [
        0,
        0,
        0
      ],
      "name": "Common_Stingray_02",
      "pbrMetallicRoughness": {
        "baseColorFactor": [
          1,
          1,
          1,
          1
        ],
        "baseColorTexture": {
          "index": 1,
          "texCoord": 0
        },
        "metallicFactor": 0,
        "metallicRoughnessTexture": {
          "index": 0,
          "texCoord": 0
        },
        "roughnessFactor": 1
      }
    }
  ],
  "meshes": [
    {
      "primitives": [
        {
          "attributes": {
            "NORMAL": 1,
            "POSITION": 0,
            "TANGENT": 2,
            "TEXCOORD_0": 3
          },
          "indices": 4,
          "material": 0,
          "mode": 4
        }
      ]
    },
    {
      "primitives": [
        {
          "attributes": {
            "NORMAL": 6,
            "POSITION": 5,
            "TANGENT": 7,
            "TEXCOORD_0": 8
          },
          "indices": 9,
          "material": 0,
          "mode": 4
        }
      ]
    }
  ],
  "nodes": [
    {
      "children": [
        1
      ],
      "name": "RootNode (gltf orientation matrix)",
      "rotation": [
        -0.70710678118654746,
        -0,
        -0,
        0.70710678118654757
      ]
    },
    {
      "children": [
        2
      ],
      "matrix": [
        0.97015917301177979,
        -0.2424689382314682,
        0,
        0,
        0.2424689382314682,
        0.97015917301177979,
        0,
        0,
        0,
        0,
        1,
        0,
        -4.8035106658935547,
        0.69415175914764404,
        0,
        1
      ],
      "name": "RootNode (model correction matrix)"
    },
    {
      "children": [
        3,
        4
      ],
      "name": "Common_Stingray_02.obj.cleaner.materialmerger.gles"
    },
    {
      "mesh": 0,
      "name": ""
    },
    {
      "mesh": 1,
      "name": ""
    }
  ],
  "samplers": [
    {
      "magFilter": 9729,
      "minFilter": 9987,
      "wrapS": 10497,
      "wrapT": 10497
    }
  ],
  "scene": 0,
  "scenes": [
    {
      "name": "OSG_Scene",
      "nodes": [
        0
      ]
    }
  ],
  "textures": [
    {
      "sampler": 0,
      "source": 0
    },
    {
      "sampler": 0,
      "source": 1
    }
  ]
}

