{
  "accessors": [
    {
      "bufferView": 2,
      "componentType": 5126,
      "count": 2835,
      "max": [
        2.5947051048278809,
        2.6004030704498291,
        6.0956721305847168
      ],
      "min": [
        -2.5640900135040283,
        -2.6004030704498291,
        -0.03903999924659729
      ],
      "type": "VEC3"
    },
    {
      "bufferView": 2,
      "byteOffset": 34020,
      "componentType": 5126,
      "count": 2835,
      "max": [
        0.99933421611785889,
        0.99792200326919556,
        0.99992114305496216
      ],
      "min": [
        -0.99873626232147217,
        -0.99984222650527954,
        -0.99903589487075806
      ],
      "type": "VEC3"
    },
    {
      "bufferView": 3,
      "componentType": 5126,
      "count": 2835,
      "max": [
        0.99992990493774414,
        0.99921613931655884,
        0.99949043989181519,
        1
      ],
      "min": [
        -0.99888730049133301,
        -0.99891036748886108,
        -0.96982234716415405,
        1
      ],
      "type": "VEC4"
    },
    {
      "bufferView": 1,
      "componentType": 5126,
      "count": 2835,
      "max": [
        0.9941369891166687,
        0.99435198307037354
      ],
      "min": [
        0.0054680001921951771,
        0.0081700002774596214
      ],
      "type": "VEC2"
    },
    {
      "bufferView": 0,
      "componentType": 5125,
      "count": 15426,
      "max": [
        2834
      ],
      "min": [
        0
      ],
      "type": "SCALAR"
    }
  ],
  "asset": {
    "extras": {
      "author": "DigitalSouls (https://sketchfab.com/DigitalSouls)",
      "license": "CC-BY-NC-4.0 (http://creativecommons.org/licenses/by-nc/4.0/)",
      "source": "https://sketchfab.com/3d-models/delicious-red-apple-dc5a0c0c439942d58d038a10d7064c91",
      "title": "Delicious Red Apple"
    },
    "generator": "Sketchfab-5.36.0",
    "version": "2.0"
  },
  "bufferViews": [
    {
      "buffer": 0,
      "byteLength": 61704,
      "byteOffset": 0,
      "name": "floatBufferViews",
      "target": 34963
    },
    {
      "buffer": 0,
      "byteLength": 22680,
      "byteOffset": 61704,
      "byteStride": 8,
      "name": "floatBufferViews",
      "target": 34962
    },
    {
      "buffer": 0,
      "byteLength": 68040,
      "byteOffset": 84384,
      "byteStride": 12,
      "name": "floatBufferViews",
      "target": 34962
    },
    {
      "buffer": 0,
      "byteLength": 45360,
      "byteOffset": 152424,
      "byteStride": 16,
      "name": "floatBufferViews",
      "target": 34962
    }
  ],
  "buffers": [
    {
      "byteLength": 197784,
      "uri": "scene.bin"
    }
  ],
  "images": [
    {
      "uri": "textures/lambert2SG_normal.png"
    },
    {
      "uri": "textures/lambert2SG_metallicRoughness.png"
    },
    {
      "uri": "textures/lambert2SG_baseColor.png"
    }
  ],
  "materials": [
    {
      "doubleSided": true,
      "name": "lambert2SG",
      "normalTexture": {
        "index": 0,
        "scale": 1,
        "texCoord": 0
      },
      "occlusionTexture": {
        "index": 1,
        "strength": 1,
        "texCoord": 0
      },
      "pbrMetallicRoughness": {
        "baseColorFactor": [
          1,
          1,
          1,
          1
        ],
        "baseColorTexture": {
          "index": 2,
          "texCoord": 0
        },
        "metallicFactor": 1,
        "metallicRoughnessTexture": {
          "index": 1,
          "texCoord": 0
        },
        "roughnessFactor": 1
      }
    }
  ],
  "meshes": [
    {
      "primitives": [
        {
          "attributes": {
            "NORMAL": 1,
            "POSITION": 0,
            "TANGENT": 2,
            "TEXCOORD_0": 3
          },
          "indices": 4,
          "material": 0,
          "mode": 4
        }
      ]
    }
  ],
  "nodes": [
    {
      "children": [
        1
      ],
      "name": "RootNode (gltf orientation matrix)",
      "rotation": [
        -0.70710678118654746,
        -0,
        -0,
        0.70710678118654757
      ]
    },
    {
      "children": [
        2
      ],
      "name": "RootNode (model correction matrix)"
    },
    {
      "children": [
        3
      ],
      "name": "Red_Apple.obj.cleaner.materialmerger.gles"
    },
    {
      "mesh": 0,
      "name": ""
    }
  ],
  "samplers": [
    {
      "magFilter": 9729,
      "minFilter": 9987,
      "wrapS": 10497,
      "wrapT": 10497
    }
  ],
  "scene": 0,
  "scenes": [
    {
      "name": "OSG_Scene",
      "nodes": [
        0
      ]
    }
  ],
  "textures": [
    {
      "sampler": 0,
      "source": 0
    },
    {
      "sampler": 0,
      "source": 1
    },
    {
      "sampler": 0,
      "source": 2
    }
  ]
}

