{
  "accessors": [
    {
      "bufferView": 2,
      "componentType": 5126,
      "count": 65532,
      "max": [
        1.1028770208358765,
        3.8345320224761963,
        -3.2234408855438232
      ],
      "min": [
        -1.2527710199356079,
        1.7878479957580566,
        -8.2608785629272461
      ],
      "type": "VEC3"
    },
    {
      "bufferView": 2,
      "byteOffset": 786384,
      "componentType": 5126,
      "count": 65532,
      "max": [
        0.99998593330383301,
        0.9999992847442627,
        0.99999183416366577
      ],
      "min": [
        -0.99990129470825195,
        -0.99999582767486572,
        -0.9999498724937439
      ],
      "type": "VEC3"
    },
    {
      "bufferView": 3,
      "componentType": 5126,
      "count": 65532,
      "max": [
        0.99952679872512817,
        0.99998801946640015,
        0.99977731704711914,
        1
      ],
      "min": [
        -0.99997562170028687,
        -0.99991381168365479,
        -0.99999940395355225,
        -1
      ],
      "type": "VEC4"
    },
    {
      "bufferView": 1,
      "componentType": 5126,
      "count": 65532,
      "max": [
        0.98969799280166626,
        0.97258901596069336
      ],
      "min": [
        0.030889999121427536,
        0.025296999141573906
      ],
      "type": "VEC2"
    },
    {
      "bufferView": 0,
      "componentType": 5125,
      "count": 318192,
      "max": [
        65531
      ],
      "min": [
        0
      ],
      "type": "SCALAR"
    },
    {
      "bufferView": 2,
      "byteOffset": 1572768,
      "componentType": 5126,
      "count": 65532,
      "max": [
        1.0347720384597778,
        3.888746976852417,
        -3.1073029041290283
      ],
      "min": [
        -1.1824339628219604,
        1.9447040557861328,
        -8.3157310485839844
      ],
      "type": "VEC3"
    },
    {
      "bufferView": 2,
      "byteOffset": 2359152,
      "componentType": 5126,
      "count": 65532,
      "max": [
        0.99998736381530762,
        0.99993693828582764,
        0.99995976686477661
      ],
      "min": [
        -0.99978697299957275,
        -0.99999624490737915,
        -0.99998819828033447
      ],
      "type": "VEC3"
    },
    {
      "bufferView": 3,
      "byteOffset": 1048512,
      "componentType": 5126,
      "count": 65532,
      "max": [
        0.99981981515884399,
        0.99999523162841797,
        0.9852302074432373,
        1
      ],
      "min": [
        -0.99999451637268066,
        -0.99998927116394043,
        -0.99999046325683594,
        1
      ],
      "type": "VEC4"
    },
    {
      "bufferView": 1,
      "byteOffset": 524256,
      "componentType": 5126,
      "count": 65532,
      "max": [
        0.99353700876235962,
        0.99133199453353882
      ],
      "min": [
        0.04313499853014946,
        0.031353000551462173
      ],
      "type": "VEC2"
    },
    {
      "bufferView": 0,
      "byteOffset": 1272768,
      "componentType": 5125,
      "count": 311301,
      "max": [
        65531
      ],
      "min": [
        0
      ],
      "type": "SCALAR"
    },
    {
      "bufferView": 2,
      "byteOffset": 3145536,
      "componentType": 5126,
      "count": 65532,
      "max": [
        1.1246720552444458,
        3.8690979480743408,
        -3.1953060626983643
      ],
      "min": [
        -1.2752100229263306,
        1.6967140436172485,
        -8.2697372436523438
      ],
      "type": "VEC3"
    },
    {
      "bufferView": 2,
      "byteOffset": 3931920,
      "componentType": 5126,
      "count": 65532,
      "max": [
        0.99974358081817627,
        0.99999427795410156,
        0.99990510940551758
      ],
      "min": [
        -0.99999088048934937,
        -0.99998849630355835,
        -0.99995279312133789
      ],
      "type": "VEC3"
    },
    {
      "bufferView": 3,
      "byteOffset": 2097024,
      "componentType": 5126,
      "count": 65532,
      "max": [
        0.99960929155349731,
        0.99994355440139771,
        0.99997174739837646,
        1
      ],
      "min": [
        -0.99998098611831665,
        -0.9999738335609436,
        -0.99991858005523682,
        -1
      ],
      "type": "VEC4"
    },
    {
      "bufferView": 1,
      "byteOffset": 1048512,
      "componentType": 5126,
      "count": 65532,
      "max": [
        0.99465399980545044,
        0.99484902620315552
      ],
      "min": [
        0.034421999007463455,
        0.021091999486088753
      ],
      "type": "VEC2"
    },
    {
      "bufferView": 0,
      "byteOffset": 2517972,
      "componentType": 5125,
      "count": 317637,
      "max": [
        65531
      ],
      "min": [
        0
      ],
      "type": "SCALAR"
    },
    {
      "bufferView": 2,
      "byteOffset": 4718304,
      "componentType": 5126,
      "count": 65532,
      "max": [
        1.1390130519866943,
        3.8875410556793213,
        -3.1067769527435303
      ],
      "min": [
        -1.2749919891357422,
        1.8437390327453613,
        -8.3157463073730469
      ],
      "type": "VEC3"
    },
    {
      "bufferView": 2,
      "byteOffset": 5504688,
      "componentType": 5126,
      "count": 65532,
      "max": [
        0.99983352422714233,
        0.99999707937240601,
        0.99999415874481201
      ],
      "min": [
        -0.99997603893280029,
        -0.99999582767486572,
        -0.99998956918716431
      ],
      "type": "VEC3"
    },
    {
      "bufferView": 3,
      "byteOffset": 3145536,
      "componentType": 5126,
      "count": 65532,
      "max": [
        0.99554115533828735,
        0.99996119737625122,
        0.99997562170028687,
        1
      ],
      "min": [
        -0.99995416402816772,
        -0.99998927116394043,
        -0.99999046325683594,
        -1
      ],
      "type": "VEC4"
    },
    {
      "bufferView": 1,
      "byteOffset": 1572768,
      "componentType": 5126,
      "count": 65532,
      "max": [
        0.99116802215576172,
        0.99000298976898193
      ],
      "min": [
        0.0035149999894201756,
        0.0095089999958872795
      ],
      "type": "VEC2"
    },
    {
      "bufferView": 0,
      "byteOffset": 3788520,
      "componentType": 5125,
      "count": 316992,
      "max": [
        65531
      ],
      "min": [
        0
      ],
      "type": "SCALAR"
    },
    {
      "bufferView": 2,
      "byteOffset": 6291072,
      "componentType": 5126,
      "count": 65532,
      "max": [
        1.102465033531189,
        3.8240139484405518,
        -3.1584069728851318
      ],
      "min": [
        -1.1683169603347778,
        1.6774280071258545,
        -8.2943077087402344
      ],
      "type": "VEC3"
    },
    {
      "bufferView": 2,
      "byteOffset": 7077456,
      "componentType": 5126,
      "count": 65532,
      "max": [
        0.99998372793197632,
        0.99963098764419556,
        0.99996906518936157
      ],
      "min": [
        -0.99991542100906372,
        -0.99998569488525391,
        -0.99999243021011353
      ],
      "type": "VEC3"
    },
    {
      "bufferView": 3,
      "byteOffset": 4194048,
      "componentType": 5126,
      "count": 65532,
      "max": [
        0.99990850687026978,
        0.99995225667953491,
        0.99992811679840088,
        1
      ],
      "min": [
        -0.99965626001358032,
        -0.9999922513961792,
        -0.99996966123580933,
        -1
      ],
      "type": "VEC4"
    },
    {
      "bufferView": 1,
      "byteOffset": 2097024,
      "componentType": 5126,
      "count": 65532,
      "max": [
        0.99017399549484253,
        0.99194997549057007
      ],
      "min": [
        0.0047010001726448536,
        0.017108999192714691
      ],
      "type": "VEC2"
    },
    {
      "bufferView": 0,
      "byteOffset": 5056488,
      "componentType": 5125,
      "count": 317871,
      "max": [
        65531
      ],
      "min": [
        0
      ],
      "type": "SCALAR"
    },
    {
      "bufferView": 2,
      "byteOffset": 7863840,
      "componentType": 5126,
      "count": 65532,
      "max": [
        1.1393710374832153,
        3.8851020336151123,
        -3.1162269115447998
      ],
      "min": [
        -1.2726730108261108,
        1.7146739959716797,
        -8.308110237121582
      ],
      "type": "VEC3"
    },
    {
      "bufferView": 2,
      "byteOffset": 8650224,
      "componentType": 5126,
      "count": 65532,
      "max": [
        0.99999415874481201,
        0.99992913007736206,
        0.99999850988388062
      ],
      "min": [
        -0.99999153614044189,
        -0.99998879432678223,
        -0.99999076128005981
      ],
      "type": "VEC3"
    },
    {
      "bufferView": 3,
      "byteOffset": 5242560,
      "componentType": 5126,
      "count": 65532,
      "max": [
        0.99998247623443604,
        0.99997758865356445,
        0.99820923805236816,
        1
      ],
      "min": [
        -0.99999767541885376,
        -0.99999725818634033,
        -0.99993860721588135,
        -1
      ],
      "type": "VEC4"
    },
    {
      "bufferView": 1,
      "byteOffset": 2621280,
      "componentType": 5126,
      "count": 65532,
      "max": [
        0.99564599990844727,
        0.98848801851272583
      ],
      "min": [
        0.013140999712049961,
        0.0039149997755885124
      ],
      "type": "VEC2"
    },
    {
      "bufferView": 0,
      "byteOffset": 6327972,
      "componentType": 5125,
      "count": 317544,
      "max": [
        65531
      ],
      "min": [
        0
      ],
      "type": "SCALAR"
    },
    {
      "bufferView": 2,
      "byteOffset": 9436608,
      "componentType": 5126,
      "count": 65532,
      "max": [
        1.1310930252075195,
        3.8927779197692871,
        -3.124567985534668
      ],
      "min": [
        -1.2726730108261108,
        1.6762540340423584,
        -8.312408447265625
      ],
      "type": "VEC3"
    },
    {
      "bufferView": 2,
      "byteOffset": 10222992,
      "componentType": 5126,
      "count": 65532,
      "max": [
        0.99998611211776733,
        0.99999868869781494,
        0.99999415874481201
      ],
      "min": [
        -0.99999833106994629,
        -0.99999630451202393,
        -0.9999958872795105
      ],
      "type": "VEC3"
    },
    {
      "bufferView": 3,
      "byteOffset": 6291072,
      "componentType": 5126,
      "count": 65532,
      "max": [
        0.99986159801483154,
        0.99997562170028687,
        0.99992263317108154,
        1
      ],
      "min": [
        -0.99978435039520264,
        -0.99993884563446045,
        -0.99993878602981567,
        1
      ],
      "type": "VEC4"
    },
    {
      "bufferView": 1,
      "byteOffset": 3145536,
      "componentType": 5126,
      "count": 65532,
      "max": [
        0.98947197198867798,
        0.99678498506546021
      ],
      "min": [
        0.0071450001560151577,
        0.0042209997773170471
      ],
      "type": "VEC2"
    },
    {
      "bufferView": 0,
      "byteOffset": 7598148,
      "componentType": 5125,
      "count": 306000,
      "max": [
        65531
      ],
      "min": [
        0
      ],
      "type": "SCALAR"
    },
    {
      "bufferView": 2,
      "byteOffset": 11009376,
      "componentType": 5126,
      "count": 65532,
      "max": [
        1.1313290596008301,
        3.8937439918518066,
        -3.1147670745849609
      ],
      "min": [
        -1.2735710144042969,
        1.676144003868103,
        -8.315882682800293
      ],
      "type": "VEC3"
    },
    {
      "bufferView": 2,
      "byteOffset": 11795760,
      "componentType": 5126,
      "count": 65532,
      "max": [
        0.99994593858718872,
        0.99999868869781494,
        0.99989038705825806
      ],
      "min": [
        -0.99996340274810791,
        -0.99999767541885376,
        -0.99999326467514038
      ],
      "type": "VEC3"
    },
    {
      "bufferView": 3,
      "byteOffset": 7339584,
      "componentType": 5126,
      "count": 65532,
      "max": [
        0.99981981515884399,
        0.99998801946640015,
        0.99997562170028687,
        1
      ],
      "min": [
        -0.99999725818634033,
        -0.9999922513961792,
        -0.99998956918716431,
        -1
      ],
      "type": "VEC4"
    },
    {
      "bufferView": 1,
      "byteOffset": 3669792,
      "componentType": 5126,
      "count": 65532,
      "max": [
        0.9946969747543335,
        0.99585902690887451
      ],
      "min": [
        0.0053550000302493572,
        0.0037289999891072512
      ],
      "type": "VEC2"
    },
    {
      "bufferView": 0,
      "byteOffset": 8822148,
      "componentType": 5125,
      "count": 276036,
      "max": [
        65531
      ],
      "min": [
        0
      ],
      "type": "SCALAR"
    },
    {
      "bufferView": 2,
      "byteOffset": 12582144,
      "componentType": 5126,
      "count": 65533,
      "max": [
        1.1390130519866943,
        3.8910739421844482,
        -3.110353946685791
      ],
      "min": [
        -1.2752100229263306,
        1.676144003868103,
        -8.315826416015625
      ],
      "type": "VEC3"
    },
    {
      "bufferView": 2,
      "byteOffset": 13368540,
      "componentType": 5126,
      "count": 65533,
      "max": [
        0.99983876943588257,
        0.99993181228637695,
        0.99995529651641846
      ],
      "min": [
        -0.99999088048934937,
        -0.99992471933364868,
        -0.99993950128555298
      ],
      "type": "VEC3"
    },
    {
      "bufferView": 3,
      "byteOffset": 8388096,
      "componentType": 5126,
      "count": 65533,
      "max": [
        0.99985891580581665,
        0.99999523162841797,
        0.99997174739837646,
        1
      ],
      "min": [
        -0.99992197751998901,
        -0.99998503923416138,
        -0.99994498491287231,
        -1
      ],
      "type": "VEC4"
    },
    {
      "bufferView": 1,
      "byteOffset": 4194048,
      "componentType": 5126,
      "count": 65533,
      "max": [
        0.99489200115203857,
        0.99562102556228638
      ],
      "min": [
        0.0048440000973641872,
        0.0037199999205768108
      ],
      "type": "VEC2"
    },
    {
      "bufferView": 0,
      "byteOffset": 9926292,
      "componentType": 5125,
      "count": 172866,
      "max": [
        65532
      ],
      "min": [
        0
      ],
      "type": "SCALAR"
    },
    {
      "bufferView": 2,
      "byteOffset": 14154936,
      "componentType": 5126,
      "count": 36092,
      "max": [
        1.1393029689788818,
        3.8937439918518066,
        -3.108288049697876
      ],
      "min": [
        -1.2749049663543701,
        1.676144003868103,
        -8.315826416015625
      ],
      "type": "VEC3"
    },
    {
      "bufferView": 2,
      "byteOffset": 14588040,
      "componentType": 5126,
      "count": 36092,
      "max": [
        0.99986833333969116,
        0.99999427795410156,
        0.99986410140991211
      ],
      "min": [
        -0.9998590350151062,
        -0.9999164342880249,
        -0.9999622106552124
      ],
      "type": "VEC3"
    },
    {
      "bufferView": 3,
      "byteOffset": 9436624,
      "componentType": 5126,
      "count": 36092,
      "max": [
        0.99922150373458862,
        0.99998766183853149,
        0.99979567527770996,
        1
      ],
      "min": [
        -0.99997347593307495,
        -0.99997210502624512,
        -0.99999940395355225,
        -1
      ],
      "type": "VEC4"
    },
    {
      "bufferView": 1,
      "byteOffset": 4718312,
      "componentType": 5126,
      "count": 36092,
      "max": [
        0.99575501680374146,
        0.99609202146530151
      ],
      "min": [
        0.0062440000474452972,
        0.0037509999237954617
      ],
      "type": "VEC2"
    },
    {
      "bufferView": 0,
      "byteOffset": 10617756,
      "componentType": 5125,
      "count": 48921,
      "max": [
        36091
      ],
      "min": [
        0
      ],
      "type": "SCALAR"
    }
  ],
  "asset": {
    "extras": {
      "author": "Alien47 (https://sketchfab.com/Alien47)",
      "license": "CC-BY-4.0 (http://creativecommons.org/licenses/by/4.0/)",
      "source": "https://sketchfab.com/models/e4d8cb976a2842aa9734c989fc13dc90",
      "title": "Awer00101"
    },
    "generator": "Sketchfab-3.37.3",
    "version": "2.0"
  },
  "bufferViews": [
    {
      "buffer": 0,
      "byteLength": 10813440,
      "byteOffset": 0,
      "name": "floatBufferViews",
      "target": 34963
    },
    {
      "buffer": 0,
      "byteLength": 5007048,
      "byteOffset": 10813440,
      "byteStride": 8,
      "name": "floatBufferViews",
      "target": 34962
    },
    {
      "buffer": 0,
      "byteLength": 15021144,
      "byteOffset": 15820488,
      "byteStride": 12,
      "name": "floatBufferViews",
      "target": 34962
    },
    {
      "buffer": 0,
      "byteLength": 10014096,
      "byteOffset": 30841632,
      "byteStride": 16,
      "name": "floatBufferViews",
      "target": 34962
    }
  ],
  "buffers": [
    {
      "byteLength": 40855728,
      "uri": "scene.bin"
    }
  ],
  "materials": [
    {
      "doubleSided": true,
      "name": "material_0",
      "pbrMetallicRoughness": {
        "baseColorFactor": [
          1,
          1,
          1,
          1
        ],
        "metallicFactor": 0,
        "roughnessFactor": 0.59999999999999998
      }
    }
  ],
  "meshes": [
    {
      "primitives": [
        {
          "attributes": {
            "NORMAL": 1,
            "POSITION": 0,
            "TANGENT": 2,
            "TEXCOORD_0": 3
          },
          "indices": 4,
          "material": 0,
          "mode": 4
        }
      ]
    },
    {
      "primitives": [
        {
          "attributes": {
            "NORMAL": 6,
            "POSITION": 5,
            "TANGENT": 7,
            "TEXCOORD_0": 8
          },
          "indices": 9,
          "material": 0,
          "mode": 4
        }
      ]
    },
    {
      "primitives": [
        {
          "attributes": {
            "NORMAL": 11,
            "POSITION": 10,
            "TANGENT": 12,
            "TEXCOORD_0": 13
          },
          "indices": 14,
          "material": 0,
          "mode": 4
        }
      ]
    },
    {
      "primitives": [
        {
          "attributes": {
            "NORMAL": 16,
            "POSITION": 15,
            "TANGENT": 17,
            "TEXCOORD_0": 18
          },
          "indices": 19,
          "material": 0,
          "mode": 4
        }
      ]
    },
    {
      "primitives": [
        {
          "attributes": {
            "NORMAL": 21,
            "POSITION": 20,
            "TANGENT": 22,
            "TEXCOORD_0": 23
          },
          "indices": 24,
          "material": 0,
          "mode": 4
        }
      ]
    },
    {
      "primitives": [
        {
          "attributes": {
            "NORMAL": 26,
            "POSITION": 25,
            "TANGENT": 27,
            "TEXCOORD_0": 28
          },
          "indices": 29,
          "material": 0,
          "mode": 4
        }
      ]
    },
    {
      "primitives": [
        {
          "attributes": {
            "NORMAL": 31,
            "POSITION": 30,
            "TANGENT": 32,
            "TEXCOORD_0": 33
          },
          "indices": 34,
          "material": 0,
          "mode": 4
        }
      ]
    },
    {
      "primitives": [
        {
          "attributes": {
            "NORMAL": 36,
            "POSITION": 35,
            "TANGENT": 37,
            "TEXCOORD_0": 38
          },
          "indices": 39,
          "material": 0,
          "mode": 4
        }
      ]
    },
    {
      "primitives": [
        {
          "attributes": {
            "NORMAL": 41,
            "POSITION": 40,
            "TANGENT": 42,
            "TEXCOORD_0": 43
          },
          "indices": 44,
          "material": 0,
          "mode": 4
        }
      ]
    },
    {
      "primitives": [
        {
          "attributes": {
            "NORMAL": 46,
            "POSITION": 45,
            "TANGENT": 47,
            "TEXCOORD_0": 48
          },
          "indices": 49,
          "material": 0,
          "mode": 4
        }
      ]
    }
  ],
  "nodes": [
    {
      "children": [
        1
      ],
      "name": "RootNode (gltf orientation matrix)",
      "rotation": [
        -0.70710678118654746,
        -0,
        -0,
        0.70710678118654757
      ]
    },
    {
      "children": [
        2
      ],
      "name": "RootNode (model correction matrix)"
    },
    {
      "children": [
        3,
        4,
        5,
        6,
        7,
        8,
        9,
        10,
        11,
        12
      ],
      "name": "SCAN499_A01.OBJ.cleaner.materialmerger.gles"
    },
    {
      "mesh": 0,
      "name": ""
    },
    {
      "mesh": 1,
      "name": ""
    },
    {
      "mesh": 2,
      "name": ""
    },
    {
      "mesh": 3,
      "name": ""
    },
    {
      "mesh": 4,
      "name": ""
    },
    {
      "mesh": 5,
      "name": ""
    },
    {
      "mesh": 6,
      "name": ""
    },
    {
      "mesh": 7,
      "name": ""
    },
    {
      "mesh": 8,
      "name": ""
    },
    {
      "mesh": 9,
      "name": ""
    }
  ],
  "scene": 0,
  "scenes": [
    {
      "name": "OSG_Scene",
      "nodes": [
        0
      ]
    }
  ]
}

