{
  "accessors": [
    {
      "bufferView": 2,
      "componentType": 5126,
      "count": 65532,
      "max": [
        543.8171997070313,
        795.6896362304688,
        139.50645446777344
      ],
      "min": [
        -544.2622680664063,
        3.826171875,
        -231.0526580810547
      ],
      "type": "VEC3"
    },
    {
      "bufferView": 2,
      "byteOffset": 786384,
      "componentType": 5126,
      "count": 65532,
      "max": [
        0.9999993443489075,
        0.9999966025352478,
        0.9999939203262329
      ],
      "min": [
        -0.9999969601631165,
        -0.9999986290931702,
        -0.9999944567680359
      ],
      "type": "VEC3"
    },
    {
      "bufferView": 3,
      "componentType": 5126,
      "count": 65532,
      "max": [
        0.9999997615814209,
        0.9999999403953552,
        0.9999568462371826,
        1.0
      ],
      "min": [
        -0.9999994039535522,
        -0.9999998807907104,
        -0.9999478459358215,
        -1.0
      ],
      "type": "VEC4"
    },
    {
      "bufferView": 1,
      "componentType": 5126,
      "count": 65532,
      "max": [
        0.999500036239624,
        0.9994999766349792
      ],
      "min": [
        0.0005000000237487257,
        0.012013852596282959
      ],
      "type": "VEC2"
    },
    {
      "bufferView": 1,
      "byteOffset": 524256,
      "componentType": 5126,
      "count": 65532,
      "max": [
        0.999500036239624,
        0.9994999766349792
      ],
      "min": [
        0.0005000000237487257,
        0.012013852596282959
      ],
      "type": "VEC2"
    },
    {
      "bufferView": 1,
      "byteOffset": 1048512,
      "componentType": 5126,
      "count": 65532,
      "max": [
        0.999500036239624,
        0.9994999766349792
      ],
      "min": [
        0.0005000000237487257,
        0.012013852596282959
      ],
      "type": "VEC2"
    },
    {
      "bufferView": 1,
      "byteOffset": 1572768,
      "componentType": 5126,
      "count": 65532,
      "max": [
        0.999500036239624,
        0.9994999766349792
      ],
      "min": [
        0.0005000000237487257,
        0.012013852596282959
      ],
      "type": "VEC2"
    },
    {
      "bufferView": 0,
      "componentType": 5125,
      "count": 324948,
      "type": "SCALAR"
    },
    {
      "bufferView": 2,
      "byteOffset": 1572768,
      "componentType": 5126,
      "count": 27937,
      "max": [
        482.02044677734375,
        795.4382934570313,
        60.594764709472656
      ],
      "min": [
        -524.469970703125,
        49.8785400390625,
        -231.05758666992188
      ],
      "type": "VEC3"
    },
    {
      "bufferView": 2,
      "byteOffset": 1908012,
      "componentType": 5126,
      "count": 27937,
      "max": [
        0.9999966025352478,
        0.9998711347579956,
        0.9999986290931702
      ],
      "min": [
        -0.9999921321868896,
        -0.9998316764831543,
        -0.9999986886978149
      ],
      "type": "VEC3"
    },
    {
      "bufferView": 3,
      "byteOffset": 1048512,
      "componentType": 5126,
      "count": 27937,
      "max": [
        0.999965488910675,
        1.0,
        0.9999768733978271,
        1.0
      ],
      "min": [
        -0.9999995231628418,
        -0.9999581575393677,
        -0.9997491836547852,
        -1.0
      ],
      "type": "VEC4"
    },
    {
      "bufferView": 1,
      "byteOffset": 2097024,
      "componentType": 5126,
      "count": 27937,
      "max": [
        0.9743662476539612,
        0.9994999766349792
      ],
      "min": [
        0.0005000000237487257,
        0.042376816272735596
      ],
      "type": "VEC2"
    },
    {
      "bufferView": 1,
      "byteOffset": 2320520,
      "componentType": 5126,
      "count": 27937,
      "max": [
        0.9743662476539612,
        0.9994999766349792
      ],
      "min": [
        0.0005000000237487257,
        0.042376816272735596
      ],
      "type": "VEC2"
    },
    {
      "bufferView": 1,
      "byteOffset": 2544016,
      "componentType": 5126,
      "count": 27937,
      "max": [
        0.9743662476539612,
        0.9994999766349792
      ],
      "min": [
        0.0005000000237487257,
        0.042376816272735596
      ],
      "type": "VEC2"
    },
    {
      "bufferView": 1,
      "byteOffset": 2767512,
      "componentType": 5126,
      "count": 27937,
      "max": [
        0.9743662476539612,
        0.9994999766349792
      ],
      "min": [
        0.0005000000237487257,
        0.042376816272735596
      ],
      "type": "VEC2"
    },
    {
      "bufferView": 0,
      "byteOffset": 1299792,
      "componentType": 5125,
      "count": 153792,
      "type": "SCALAR"
    }
  ],
  "asset": {
    "extras": {
      "author": "ARize (https://sketchfab.com/ARizegroup)",
      "license": "CC-BY-4.0 (http://creativecommons.org/licenses/by/4.0/)",
      "source": "https://sketchfab.com/3d-models/sweater-2dfa849756dc45f2bf6c6b2d8100905a",
      "title": "Sweater"
    },
    "generator": "Sketchfab-11.96.0",
    "version": "2.0"
  },
  "bufferViews": [
    {
      "buffer": 0,
      "byteLength": 1914960,
      "name": "floatBufferViews",
      "target": 34963
    },
    {
      "buffer": 0,
      "byteLength": 2991008,
      "byteOffset": 1914960,
      "byteStride": 8,
      "name": "floatBufferViews",
      "target": 34962
    },
    {
      "buffer": 0,
      "byteLength": 2243256,
      "byteOffset": 4905968,
      "byteStride": 12,
      "name": "floatBufferViews",
      "target": 34962
    },
    {
      "buffer": 0,
      "byteLength": 1495504,
      "byteOffset": 7149224,
      "byteStride": 16,
      "name": "floatBufferViews",
      "target": 34962
    }
  ],
  "buffers": [
    {
      "byteLength": 8644728,
      "uri": "scene.bin"
    }
  ],
  "images": [
    {
      "uri": "WORLD_ZIP_HOODIE_baseColor.jpeg"
    },
    {
      "uri": "WORLD_ZIP_HOODIE_metallicRoughness.png"
    },
    {
      "uri": "WORLD_ZIP_HOODIE_normal.png"
    }
  ],
  "materials": [
    {
      "doubleSided": true,
      "name": "WORLD_ZIP_HOODIE",
      "normalTexture": {
        "index": 2,
        "texCoord": 2
      },
      "pbrMetallicRoughness": {
        "baseColorTexture": {
          "index": 0
        },
        "metallicRoughnessTexture": {
          "index": 1,
          "texCoord": 1
        }
      }
    }
  ],
  "meshes": [
    {
      "name": "Object_0",
      "primitives": [
        {
          "attributes": {
            "NORMAL": 1,
            "POSITION": 0,
            "TANGENT": 2,
            "TEXCOORD_0": 3,
            "TEXCOORD_1": 4,
            "TEXCOORD_2": 5,
            "TEXCOORD_3": 6
          },
          "indices": 7,
          "material": 0,
          "mode": 4
        }
      ]
    },
    {
      "name": "Object_1",
      "primitives": [
        {
          "attributes": {
            "NORMAL": 9,
            "POSITION": 8,
            "TANGENT": 10,
            "TEXCOORD_0": 11,
            "TEXCOORD_1": 12,
            "TEXCOORD_2": 13,
            "TEXCOORD_3": 14
          },
          "indices": 15,
          "material": 0,
          "mode": 4
        }
      ]
    }
  ],
  "nodes": [
    {
      "children": [
        1
      ],
      "matrix": [
        1.0,
        0.0,
        0.0,
        0.0,
        0.0,
        2.220446049250313e-16,
        -1.0,
        0.0,
        0.0,
        1.0,
        2.220446049250313e-16,
        0.0,
        0.0,
        0.0,
        0.0,
        1.0
      ],
      "name": "Sketchfab_model"
    },
    {
      "children": [
        2
      ],
      "name": "root"
    },
    {
      "children": [
        3
      ],
      "matrix": [
        1.0,
        0.0,
        0.0,
        0.0,
        0.0,
        2.220446049250313e-16,
        1.0,
        0.0,
        0.0,
        -1.0,
        2.220446049250313e-16,
        0.0,
        0.0,
        0.0,
        0.0,
        1.0
      ],
      "name": "GLTF_SceneRootNode"
    },
    {
      "children": [
        4,
        5
      ],
      "matrix": [
        0.0010000000474974513,
        0.0,
        0.0,
        0.0,
        0.0,
        0.0010000000474974513,
        0.0,
        0.0,
        0.0,
        0.0,
        0.0010000000474974513,
        0.0,
        0.0,
        0.0,
        0.0,
        1.0
      ],
      "name": "WORLD_ZIP_HOODIE_2"
    },
    {
      "mesh": 0,
      "name": "Object_4"
    },
    {
      "mesh": 1,
      "name": "Object_5"
    }
  ],
  "samplers": [
    {
      "magFilter": 9729,
      "minFilter": 9987,
      "wrapS": 10497,
      "wrapT": 10497
    }
  ],
  "scene": 0,
  "scenes": [
    {
      "name": "Sketchfab_Scene",
      "nodes": [
        0
      ]
    }
  ],
  "textures": [
    {
      "sampler": 0,
      "source": 0
    },
    {
      "sampler": 0,
      "source": 1
    },
    {
      "sampler": 0,
      "source": 2
    }
  ]
}
