{
  "accessors": [
    {
      "bufferView": 2,
      "componentType": 5126,
      "count": 18496,
      "max": [
        3.8525736331939697,
        1.1741399765014648,
        4.339488506317139
      ],
      "min": [
        -3.039247751235962,
        -1.1741399765014648,
        -0.06941992044448853
      ],
      "type": "VEC3"
    },
    {
      "bufferView": 2,
      "byteOffset": 221952,
      "componentType": 5126,
      "count": 18496,
      "max": [
        0.9998576641082764,
        0.9999985098838806,
        0.9999958276748657
      ],
      "min": [
        -0.9999028444290161,
        -0.9999951124191284,
        -0.9999899864196777
      ],
      "type": "VEC3"
    },
    {
      "bufferView": 3,
      "componentType": 5126,
      "count": 18496,
      "max": [
        0.9999833106994629,
        0.9998695254325867,
        0.9998316168785095,
        1.0
      ],
      "min": [
        -0.997626006603241,
        -0.999997079372406,
        -0.9994977116584778,
        -1.0
      ],
      "type": "VEC4"
    },
    {
      "bufferView": 1,
      "componentType": 5126,
      "count": 18496,
      "max": [
        0.9980400204658508,
        0.952210009098053
      ],
      "min": [
        0.0019499999471008778,
        0.0019499999471008778
      ],
      "type": "VEC2"
    },
    {
      "bufferView": 0,
      "componentType": 5125,
      "count": 104976,
      "type": "SCALAR"
    }
  ],
  "asset": {
    "extras": {
      "author": "EastArtist (https://sketchfab.com/eastartist)",
      "license": "CC-BY-NC-4.0 (http://creativecommons.org/licenses/by-nc/4.0/)",
      "source": "https://sketchfab.com/3d-models/realistic-elephant-ebf48e7b68714739ba42e95fc8c655d3",
      "title": "Realistic Elephant"
    },
    "generator": "Sketchfab-12.24.0",
    "version": "2.0"
  },
  "bufferViews": [
    {
      "buffer": 0,
      "byteLength": 419904,
      "name": "floatBufferViews",
      "target": 34963
    },
    {
      "buffer": 0,
      "byteLength": 147968,
      "byteOffset": 419904,
      "byteStride": 8,
      "name": "floatBufferViews",
      "target": 34962
    },
    {
      "buffer": 0,
      "byteLength": 443904,
      "byteOffset": 567872,
      "byteStride": 12,
      "name": "floatBufferViews",
      "target": 34962
    },
    {
      "buffer": 0,
      "byteLength": 295936,
      "byteOffset": 1011776,
      "byteStride": 16,
      "name": "floatBufferViews",
      "target": 34962
    }
  ],
  "buffers": [
    {
      "byteLength": 1307712,
      "uri": "scene.bin"
    }
  ],
  "images": [
    {
      "uri": "defaultMat_baseColor.png"
    },
    {
      "uri": "defaultMat_metallicRoughness.png"
    },
    {
      "uri": "defaultMat_normal.png"
    }
  ],
  "materials": [
    {
      "doubleSided": true,
      "name": "defaultMat",
      "normalTexture": {
        "index": 2
      },
      "pbrMetallicRoughness": {
        "baseColorTexture": {
          "index": 0
        },
        "metallicRoughnessTexture": {
          "index": 1
        },
        "roughnessFactor": 0.6
      }
    }
  ],
  "meshes": [
    {
      "name": "Object_0",
      "primitives": [
        {
          "attributes": {
            "NORMAL": 1,
            "POSITION": 0,
            "TANGENT": 2,
            "TEXCOORD_0": 3
          },
          "indices": 4,
          "material": 0,
          "mode": 4
        }
      ]
    }
  ],
  "nodes": [
    {
      "children": [
        1
      ],
      "matrix": [
        0.9999812245368958,
        0.0061232042498886585,
        1.3596244685417999e-18,
        0.0,
        0.0,
        2.220446049250313e-16,
        -1.0,
        0.0,
        -0.0061232042498886585,
        0.9999812245368958,
        2.2204043593474404e-16,
        0.0,
        0.01750275306403637,
        -0.007153118494898081,
        -1.588311370181579e-18,
        1.0
      ],
      "name": "Sketchfab_model"
    },
    {
      "children": [
        2
      ],
      "name": "Elephant_MPR.obj.cleaner.materialmerger.gles"
    },
    {
      "mesh": 0,
      "name": "Object_2"
    }
  ],
  "samplers": [
    {
      "magFilter": 9729,
      "minFilter": 9987,
      "wrapS": 10497,
      "wrapT": 10497
    }
  ],
  "scene": 0,
  "scenes": [
    {
      "name": "Sketchfab_Scene",
      "nodes": [
        0
      ]
    }
  ],
  "textures": [
    {
      "sampler": 0,
      "source": 0
    },
    {
      "sampler": 0,
      "source": 1
    },
    {
      "sampler": 0,
      "source": 2
    }
  ]
}
