{
  "accessors": [
    {
      "bufferView": 2,
      "componentType": 5126,
      "count": 51,
      "max": [
        6.8988885879516602,
        1.1436295509338379,
        8.4775495529174805
      ],
      "min": [
        -1.0498616695404053,
        1.1436295509338379,
        3.666135311126709
      ],
      "type": "VEC3"
    },
    {
      "bufferView": 2,
      "byteOffset": 612,
      "componentType": 5126,
      "count": 51,
      "max": [
        2.4069876758403552e-07,
        -1,
        -0
      ],
      "min": [
        -0,
        -1,
        -0
      ],
      "type": "VEC3"
    },
    {
      "bufferView": 3,
      "componentType": 5126,
      "count": 51,
      "max": [
        -0.9999125599861145,
        0,
        -0.013205839321017265,
        -1
      ],
      "min": [
        -0.9999127984046936,
        -2.4067776394076645e-07,
        -0.013225341215729713,
        -1
      ],
      "type": "VEC4"
    },
    {
      "bufferView": 1,
      "componentType": 5126,
      "count": 51,
      "max": [
        0.67426502704620361,
        0.91240280866622925
      ],
      "min": [
        0.31502598524093628,
        0.62797486782073975
      ],
      "type": "VEC2"
    },
    {
      "bufferView": 1,
      "byteOffset": 408,
      "componentType": 5126,
      "count": 51,
      "max": [
        0.67426502704620361,
        0.91240280866622925
      ],
      "min": [
        0.31502598524093628,
        0.62797486782073975
      ],
      "type": "VEC2"
    },
    {
      "bufferView": 0,
      "componentType": 5125,
      "count": 147,
      "max": [
        50
      ],
      "min": [
        0
      ],
      "type": "SCALAR"
    },
    {
      "bufferView": 2,
      "byteOffset": 1224,
      "componentType": 5126,
      "count": 14649,
      "max": [
        4.1943426132202148,
        5.5433769226074219,
        3.0040817260742188
      ],
      "min": [
        -5.7936100959777832,
        -5.1777973175048828,
        -3.0695257186889648
      ],
      "type": "VEC3"
    },
    {
      "bufferView": 2,
      "byteOffset": 177012,
      "componentType": 5126,
      "count": 14649,
      "max": [
        0.9999229907989502,
        0.99973475933074951,
        0.9999467134475708
      ],
      "min": [
        -0.99966466426849365,
        -0.99995386600494385,
        -0.99996650218963623
      ],
      "type": "VEC3"
    },
    {
      "bufferView": 1,
      "byteOffset": 816,
      "componentType": 5126,
      "count": 14649,
      "max": [
        1,
        0.99999994039535522
      ],
      "min": [
        0,
        0
      ],
      "type": "VEC2"
    },
    {
      "bufferView": 1,
      "byteOffset": 118008,
      "componentType": 5126,
      "count": 14649,
      "max": [
        1,
        0.99999994039535522
      ],
      "min": [
        0,
        0
      ],
      "type": "VEC2"
    },
    {
      "bufferView": 0,
      "byteOffset": 588,
      "componentType": 5125,
      "count": 78732,
      "max": [
        14648
      ],
      "min": [
        0
      ],
      "type": "SCALAR"
    },
    {
      "bufferView": 2,
      "byteOffset": 352800,
      "componentType": 5126,
      "count": 3264,
      "max": [
        1.0398955345153809,
        3.0753822326660156,
        7.937647819519043
      ],
      "min": [
        -3.6399979591369629,
        -2.0629508495330811,
        0.34304285049438477
      ],
      "type": "VEC3"
    },
    {
      "bufferView": 2,
      "byteOffset": 391968,
      "componentType": 5126,
      "count": 3264,
      "max": [
        0.99684953689575195,
        0.99936485290527344,
        0.98184287548065186
      ],
      "min": [
        -0.99819862842559814,
        -0.99950087070465088,
        -0.95418280363082886
      ],
      "type": "VEC3"
    },
    {
      "bufferView": 1,
      "byteOffset": 235200,
      "componentType": 5126,
      "count": 3264,
      "max": [
        0.27294841408729553,
        0.9275166392326355
      ],
      "min": [
        0.047875523567199707,
        0.70244371891021729
      ],
      "type": "VEC2"
    },
    {
      "bufferView": 0,
      "byteOffset": 315516,
      "componentType": 5125,
      "count": 5148,
      "max": [
        3263
      ],
      "min": [
        0
      ],
      "type": "SCALAR"
    }
  ],
  "asset": {
    "extras": {
      "author": "siotech2011 (https://sketchfab.com/siotech2011)",
      "license": "CC-BY-4.0 (http://creativecommons.org/licenses/by/4.0/)",
      "source": "https://sketchfab.com/3d-models/cherries-a6a77f3d44d44c2dacab02b7a55c0b4e",
      "title": "Cherries"
    },
    "generator": "Sketchfab-10.28.0",
    "version": "2.0"
  },
  "bufferViews": [
    {
      "buffer": 0,
      "byteLength": 336108,
      "byteOffset": 0,
      "name": "floatBufferViews",
      "target": 34963
    },
    {
      "buffer": 0,
      "byteLength": 261312,
      "byteOffset": 336108,
      "byteStride": 8,
      "name": "floatBufferViews",
      "target": 34962
    },
    {
      "buffer": 0,
      "byteLength": 431136,
      "byteOffset": 597420,
      "byteStride": 12,
      "name": "floatBufferViews",
      "target": 34962
    },
    {
      "buffer": 0,
      "byteLength": 816,
      "byteOffset": 1028556,
      "byteStride": 16,
      "name": "floatBufferViews",
      "target": 34962
    }
  ],
  "buffers": [
    {
      "byteLength": 1029372,
      "uri": "scene.bin"
    }
  ],
  "images": [
    {
      "uri": "Material.002_baseColor.png"
    },
    {
      "uri": "Material.002_normal.jpeg"
    },
    {
      "uri": "Material_baseColor.png"
    },
    {
      "uri": "Material_metallicRoughness.png"
    }
  ],
  "materials": [
    {
      "alphaCutoff": 0.026030741355513805,
      "alphaMode": "MASK",
      "doubleSided": true,
      "emissiveFactor": [
        0,
        0,
        0
      ],
      "name": "Material.002",
      "normalTexture": {
        "index": 1,
        "scale": 1,
        "texCoord": 0
      },
      "pbrMetallicRoughness": {
        "baseColorFactor": [
          1,
          1,
          1,
          1
        ],
        "baseColorTexture": {
          "index": 0,
          "texCoord": 0
        },
        "metallicFactor": 0,
        "roughnessFactor": 0.98636400000000002
      }
    },
    {
      "doubleSided": true,
      "name": "Material",
      "pbrMetallicRoughness": {
        "baseColorFactor": [
          1,
          1,
          1,
          1
        ],
        "baseColorTexture": {
          "index": 2,
          "texCoord": 0
        },
        "metallicFactor": 0,
        "metallicRoughnessTexture": {
          "index": 3,
          "texCoord": 0
        },
        "roughnessFactor": 1
      }
    },
    {
      "doubleSided": true,
      "emissiveFactor": [
        0,
        0,
        0
      ],
      "name": "Material.001",
      "pbrMetallicRoughness": {
        "baseColorFactor": [
          1,
          1,
          1,
          1
        ],
        "baseColorTexture": {
          "index": 4,
          "texCoord": 0
        },
        "metallicFactor": 0,
        "roughnessFactor": 0.113636
      }
    }
  ],
  "meshes": [
    {
      "primitives": [
        {
          "attributes": {
            "NORMAL": 1,
            "POSITION": 0,
            "TANGENT": 2,
            "TEXCOORD_0": 3,
            "TEXCOORD_1": 4
          },
          "indices": 5,
          "material": 0,
          "mode": 4
        }
      ]
    },
    {
      "primitives": [
        {
          "attributes": {
            "NORMAL": 7,
            "POSITION": 6,
            "TEXCOORD_0": 8,
            "TEXCOORD_1": 9
          },
          "indices": 10,
          "material": 1,
          "mode": 4
        }
      ]
    },
    {
      "primitives": [
        {
          "attributes": {
            "NORMAL": 12,
            "POSITION": 11,
            "TEXCOORD_0": 13
          },
          "indices": 14,
          "material": 2,
          "mode": 4
        }
      ]
    }
  ],
  "nodes": [
    {
      "children": [
        1
      ],
      "name": "RootNode (gltf orientation matrix)",
      "rotation": [
        -0.70710678118654746,
        -0,
        -0,
        0.70710678118654757
      ]
    },
    {
      "children": [
        2
      ],
      "matrix": [
        0.037457339465618134,
        0,
        0,
        0,
        0,
        0.037457339465618134,
        0,
        0,
        0,
        0,
        0.037457339465618134,
        0,
        0,
        0,
        0,
        1
      ],
      "name": "RootNode (model correction matrix)"
    },
    {
      "children": [
        3
      ],
      "name": "root"
    },
    {
      "children": [
        4
      ],
      "matrix": [
        1,
        0,
        0,
        0,
        0,
        2.2204460492503131e-16,
        1,
        0,
        0,
        -1,
        2.2204460492503131e-16,
        0,
        0,
        0,
        0,
        1
      ],
      "name": "GLTF_SceneRootNode"
    },
    {
      "children": [
        5,
        6,
        7
      ],
      "matrix": [
        0.012584309872903286,
        -0.044783266795256037,
        -0.34259177373141869,
        0,
        -0.34094682325964765,
        0.053900992476093777,
        -0.01956977229092334,
        0,
        0.055945760540448933,
        0.33855896280191572,
        -0.042201064587445436,
        0,
        -0.73488390445709229,
        -0.33986175060272217,
        0.039739251136779785,
        1
      ],
      "name": "leaf.001_3"
    },
    {
      "mesh": 0,
      "name": ""
    },
    {
      "mesh": 1,
      "name": ""
    },
    {
      "mesh": 2,
      "name": ""
    }
  ],
  "samplers": [
    {
      "magFilter": 9729,
      "minFilter": 9987,
      "wrapS": 10497,
      "wrapT": 10497
    },
    {
      "magFilter": 9729,
      "minFilter": 9729,
      "wrapS": 33071,
      "wrapT": 33071
    },
    {
      "magFilter": 9728,
      "minFilter": 9728,
      "wrapS": 10497,
      "wrapT": 10497
    }
  ],
  "scene": 0,
  "scenes": [
    {
      "name": "OSG_Scene",
      "nodes": [
        0
      ]
    }
  ],
  "textures": [
    {
      "sampler": 0,
      "source": 0
    },
    {
      "sampler": 0,
      "source": 1
    },
    {
      "sampler": 1,
      "source": 2
    },
    {
      "sampler": 2,
      "source": 3
    },
    {
      "sampler": 0,
      "source": 2
    }
  ]
}

